<?xml version="1.0" encoding="UTF-8" standalone="no"?>
<svg
   xmlns:dc="http://purl.org/dc/elements/1.1/"
   xmlns:cc="http://creativecommons.org/ns#"
   xmlns:rdf="http://www.w3.org/1999/02/22-rdf-syntax-ns#"
   xmlns:svg="http://www.w3.org/2000/svg"
   xmlns="http://www.w3.org/2000/svg"
   xmlns:sodipodi="http://sodipodi.sourceforge.net/DTD/sodipodi-0.dtd"
   xmlns:inkscape="http://www.inkscape.org/namespaces/inkscape"
   version="1.0"
   width="118px"
   height="105px"
   viewBox="0 0 1180 1050"
   preserveAspectRatio="xMidYMid meet"
   id="svg9"
   sodipodi:docname="casting.svg"
   inkscape:version="0.92.2 5c3e80d, 2017-08-06">
  <metadata
     id="metadata15">
    <rdf:RDF>
      <cc:Work
         rdf:about="">
        <dc:format>image/svg+xml</dc:format>
        <dc:type
           rdf:resource="http://purl.org/dc/dcmitype/StillImage" />
      </cc:Work>
    </rdf:RDF>
  </metadata>
  <defs
     id="defs13" />
  <sodipodi:namedview
     pagecolor="#ffffff"
     bordercolor="#666666"
     borderopacity="1"
     objecttolerance="10"
     gridtolerance="10"
     guidetolerance="10"
     inkscape:pageopacity="0"
     inkscape:pageshadow="2"
     inkscape:window-width="1440"
     inkscape:window-height="805"
     id="namedview11"
     showgrid="false"
     inkscape:zoom="6.3572267"
     inkscape:cx="46.121182"
     inkscape:cy="63.946087"
     inkscape:window-x="-14"
     inkscape:window-y="0"
     inkscape:window-maximized="0"
     inkscape:current-layer="layer101" />
  <g
     id="layer101"
     stroke="none"
     fill="#4a4a4a">
    <path
       d="M210 1031 c-24 -6 -25 -11 -28 -86 -2 -56 2 -97 14 -135 10 -30 18 -71 18 -90 -1 -65 -17 -170 -26 -170 -14 0 2 -141 18 -167 8 -12 14 -42 14 -66 0 -23 5 -48 12 -55 17 -17 77 -15 84 3 4 8 16 15 28 15 18 1 19 2 6 13 -9 7 -15 23 -15 37 0 14 -6 30 -13 36 -11 8 -4 17 37 43 38 24 70 36 123 43 l73 10 135 -57 c163 -69 338 -155 403 -198 56 -38 58 -61 9 -90 -54 -32 -139 -32 -317 -2 -165 28 -260 29 -276 3 -13 -21 -1 -22 36 -3 34 19 36 19 187 -5 85 -14 195 -25 248 -25 82 0 100 3 133 23 52 33 50 62 -5 103 -44 32 -202 114 -318 165 -36 15 -91 43 -122 61 -31 18 -62 31 -70 28 -7 -3 -22 2 -33 10 -19 15 -19 16 3 5 36 -18 38 -4 3 14 -33 18 -37 27 -46 129 -4 54 -2 74 12 97 16 28 16 30 0 48 -17 19 -15 20 57 56 73 35 93 57 81 89 -10 25 -46 27 -124 7 -99 -25 -118 -45 -142 -151 -30 -127 -39 -159 -47 -159 -9 0 -33 63 -66 171 -33 111 -33 129 -1 129 18 0 25 5 25 20 0 16 -7 20 -35 20 -42 0 -48 24 -10 42 61 28 8 59 -65 39z m434 -107 c9 -3 16 -17 16 -30 0 -19 -13 -30 -75 -60 -76 -37 -87 -51 -60 -74 14 -11 14 -15 0 -37 -13 -19 -15 -40 -9 -108 4 -47 4 -85 0 -85 -17 0 -88 42 -93 55 -3 8 -14 15 -24 15 -10 0 -19 1 -19 3 0 6 59 234 64 247 9 23 44 42 116 61 36 9 66 18 67 18 1 1 8 -2 17 -5z m-166 -391 c53 -31 55 -48 2 -27 -23 9 -44 14 -47 10 -3 -3 5 -10 18 -15 22 -9 22 -10 -11 -11 -19 0 -45 -3 -56 -6 -25 -7 -33 9 -27 53 5 30 7 31 42 26 20 -3 55 -17 79 -30z"
       id="path6"
       style="stroke:none;fill:#f9f9f9;fill-opacity:1" />
  </g>
</svg>
