<?xml version="1.0" encoding="UTF-8" standalone="no"?>
<svg
   xmlns:dc="http://purl.org/dc/elements/1.1/"
   xmlns:cc="http://creativecommons.org/ns#"
   xmlns:rdf="http://www.w3.org/1999/02/22-rdf-syntax-ns#"
   xmlns:svg="http://www.w3.org/2000/svg"
   xmlns="http://www.w3.org/2000/svg"
   xmlns:sodipodi="http://sodipodi.sourceforge.net/DTD/sodipodi-0.dtd"
   xmlns:inkscape="http://www.inkscape.org/namespaces/inkscape"
   version="1.0"
   width="1204px"
   height="1188px"
   viewBox="0 0 12040 11880"
   preserveAspectRatio="xMidYMid meet"
   id="svg41"
   sodipodi:docname="circle_noletter.svg"
   inkscape:version="0.92.2 5c3e80d, 2017-08-06"
   inkscape:export-filename="/Users/shuichi-fu/Downloads/circle_noletter.png"
   inkscape:export-xdpi="93.199997"
   inkscape:export-ydpi="93.199997">
  <metadata
     id="metadata47">
    <rdf:RDF>
      <cc:Work
         rdf:about="">
        <dc:format>image/svg+xml</dc:format>
        <dc:type
           rdf:resource="http://purl.org/dc/dcmitype/StillImage" />
      </cc:Work>
    </rdf:RDF>
  </metadata>
  <defs
     id="defs45" />
  <sodipodi:namedview
     pagecolor="#ffffff"
     bordercolor="#666666"
     borderopacity="1"
     objecttolerance="10"
     gridtolerance="10"
     guidetolerance="10"
     inkscape:pageopacity="0"
     inkscape:pageshadow="2"
     inkscape:window-width="1440"
     inkscape:window-height="805"
     id="namedview43"
     showgrid="false"
     inkscape:zoom="0.48287801"
     inkscape:cx="402.74499"
     inkscape:cy="618.44249"
     inkscape:window-x="59"
     inkscape:window-y="0"
     inkscape:window-maximized="0"
     inkscape:current-layer="layer101"
     showguides="true"
     inkscape:guide-bbox="true" />
  <g
     id="layer101"
     fill="#040404"
     stroke="none">
    <path
       inkscape:connector-curvature="0"
       style="fill:#f9f9f9;fill-opacity:1;stroke:none;stroke-width:1;stroke-opacity:1"
       id="path822"
       d="m 5805,11863 c -1008,-22 -1985,-303 -2884,-828 -115,-68 -479,-318 -601,-415 -234,-184 -322,-263 -549,-491 C 1464,9823 1263,9581 1045,9255 681,8711 439,8192 260,7570 44,6821 -17,5958 90,5165 208,4285 517,3458 1005,2716 c 152,-231 281,-402 475,-630 97,-115 481,-499 596,-596 228,-194 399,-323 630,-475 C 3118,744 3536,537 3995,377 4630,155 5258,50 5945,50 c 680,0 1273,97 1910,313 711,242 1353,610 1954,1122 122,103 503,484 606,606 165,192 313,390 450,595 77,116 149,227 160,245 416,713 678,1470 780,2254 62,480 62,1062 0,1540 -73,561 -238,1143 -465,1644 -242,534 -525,979 -919,1445 -98,116 -501,519 -617,617 -605,512 -1190,848 -1929,1111 -621,220 -1374,337 -2070,321 z m 95,-343 v -250 h 45 45 v 250 250 l 113,-1 c 117,0 413,-21 420,-29 2,-3 -2,-61 -9,-129 -7,-69 -11,-128 -8,-133 3,-4 14,-8 24,-8 20,0 22,7 40,174 5,49 11,90 12,91 10,9 526,-72 540,-84 4,-3 -4,-55 -17,-116 -31,-142 -31,-155 -2,-155 21,0 25,9 47,120 13,67 27,125 30,130 3,5 59,-3 130,-20 121,-28 399,-106 406,-113 2,-2 -14,-57 -36,-123 -22,-65 -38,-125 -35,-131 2,-7 13,-13 23,-13 14,0 25,22 51,103 19,56 37,112 42,124 l 8,22 118,-40 c 129,-44 384,-146 394,-157 4,-4 -18,-61 -48,-126 -53,-118 -56,-135 -17,-136 6,0 35,53 64,118 28,64 53,118 54,120 8,7 446,-215 469,-238 5,-4 -46,-102 -112,-218 -67,-115 -121,-214 -121,-220 0,-5 16,-19 35,-31 l 35,-20 33,57 c 18,31 75,130 126,219 l 93,162 28,-14 c 79,-41 420,-269 420,-281 0,-2 -35,-52 -77,-110 -74,-102 -76,-107 -58,-121 23,-16 15,-24 113,111 34,47 66,86 71,86 12,0 226,-168 343,-268 l 87,-75 -52,-59 c -135,-153 -129,-143 -109,-161 17,-15 23,-10 106,83 49,55 91,100 95,100 8,0 391,-383 391,-391 0,-4 -45,-46 -100,-95 -93,-83 -98,-89 -83,-106 18,-20 8,-26 161,109 l 59,52 75,-87 c 100,-117 268,-331 268,-343 0,-5 -39,-37 -86,-71 -135,-98 -127,-90 -111,-113 14,-18 19,-16 121,58 58,42 108,77 110,77 12,0 240,-341 281,-420 l 14,-28 -162,-93 c -89,-51 -188,-108 -219,-126 l -57,-33 20,-35 c 12,-19 26,-35 31,-35 6,0 105,54 220,121 116,66 214,117 218,112 23,-23 245,-461 238,-469 -2,-1 -56,-26 -120,-54 -65,-29 -118,-58 -118,-64 1,-39 18,-36 136,17 65,30 122,52 126,48 11,-10 113,-265 157,-394 l 40,-118 -22,-8 c -12,-5 -68,-23 -124,-42 -81,-26 -103,-37 -103,-51 0,-10 6,-21 13,-23 6,-3 66,13 131,35 66,22 121,38 123,36 7,-7 85,-285 113,-406 17,-71 25,-127 20,-130 -5,-3 -63,-17 -130,-30 -111,-22 -120,-26 -120,-47 0,-29 13,-29 155,2 61,13 113,21 116,17 12,-14 93,-530 84,-540 -1,-1 -42,-7 -91,-12 -167,-18 -174,-20 -174,-40 0,-10 4,-21 8,-24 5,-3 64,1 133,8 68,7 126,11 129,9 8,-7 29,-303 29,-420 l 1,-113 h -250 -250 v -45 -45 h 250 250 l -1,-112 c 0,-118 -21,-414 -29,-421 -3,-2 -57,2 -120,9 -156,18 -150,18 -150,-11 0,-14 3,-25 8,-25 27,-1 254,-29 256,-31 9,-11 -70,-526 -83,-541 -3,-3 -64,6 -134,21 -104,23 -130,25 -134,15 -12,-31 8,-41 121,-64 64,-13 120,-26 126,-30 11,-7 -32,-197 -89,-393 -23,-76 -41,-139 -41,-141 0,-2 -48,11 -107,30 -160,51 -163,51 -163,22 0,-23 10,-28 123,-63 67,-21 123,-39 124,-40 8,-5 -118,-345 -175,-477 l -21,-47 -122,55 c -121,54 -138,57 -139,18 0,-6 54,-35 120,-64 l 119,-53 -14,-33 c -8,-19 -21,-49 -29,-67 -21,-48 -186,-361 -195,-370 -5,-5 -104,47 -222,115 -117,68 -215,123 -217,123 -3,0 -15,-17 -28,-37 l -24,-37 221,-127 220,-126 -27,-47 c -42,-72 -252,-389 -263,-396 -6,-3 -53,26 -106,65 -114,84 -120,87 -134,62 -9,-17 1,-28 94,-93 57,-41 104,-79 105,-86 1,-24 -319,-415 -344,-420 -6,-2 -53,35 -105,82 -89,80 -96,84 -113,68 -17,-15 -15,-19 44,-72 35,-31 81,-73 103,-93 l 40,-37 -185,-186 c -102,-103 -192,-190 -201,-195 -13,-7 -35,12 -104,90 -83,94 -89,99 -107,84 -17,-16 -15,-19 35,-76 28,-32 69,-78 89,-102 l 37,-42 -84,-72 c -135,-117 -338,-273 -349,-269 -6,2 -41,46 -78,97 -83,116 -80,113 -103,96 -18,-13 -14,-19 59,-120 42,-58 74,-110 71,-116 -7,-11 -324,-222 -395,-263 l -46,-26 -73,127 c -41,70 -98,168 -128,219 l -54,92 -34,-20 c -19,-12 -35,-26 -35,-31 0,-6 55,-105 122,-221 116,-200 121,-210 102,-224 -22,-16 -287,-152 -389,-200 l -70,-32 -10,22 c -87,199 -94,212 -117,212 -31,0 -29,-11 30,-143 l 51,-112 -37,-16 c -94,-41 -296,-119 -385,-150 -70,-23 -99,-30 -103,-21 -2,7 -21,64 -43,127 -32,97 -41,114 -57,112 -10,-2 -21,-6 -24,-8 -3,-4 52,-182 77,-250 7,-19 -526,-162 -537,-144 -3,5 -16,63 -29,129 -23,113 -26,121 -48,121 -29,0 -29,-13 2,-155 15,-69 20,-112 14,-116 -19,-11 -528,-91 -537,-84 -1,1 -7,42 -12,91 -18,167 -20,174 -40,174 -10,0 -21,-4 -24,-8 -3,-5 1,-65 8,-133 8,-68 12,-126 10,-128 -7,-8 -331,-30 -436,-30 l -98,-1 v 255 255 h -45 -45 V 395 140 l -97,1 c -107,0 -430,22 -436,30 -2,2 2,56 9,119 18,156 18,150 -10,150 -26,0 -28,-7 -41,-145 -3,-33 -8,-74 -11,-91 l -4,-30 -138,17 c -135,17 -399,63 -407,70 -2,3 9,62 24,132 23,105 26,130 15,134 -31,12 -41,-8 -64,-121 -13,-64 -26,-120 -30,-125 -7,-12 -150,21 -376,85 l -162,46 23,72 c 12,39 30,97 40,128 20,62 20,64 -9,70 -16,3 -25,-15 -60,-122 -22,-69 -41,-126 -42,-127 -3,-8 -309,106 -486,181 l -37,16 55,121 c 30,66 52,125 48,130 -3,5 -13,9 -23,9 -14,0 -32,-30 -71,-119 l -53,-119 -36,15 c -51,21 -404,200 -425,216 -18,13 -10,28 107,231 l 125,216 -36,25 c -33,22 -38,23 -48,10 -6,-8 -64,-108 -129,-220 l -118,-205 -46,26 c -72,42 -389,253 -396,264 -3,5 29,57 71,115 72,99 76,107 61,123 -20,19 -14,25 -106,-100 -39,-54 -75,-98 -79,-98 -9,0 -243,183 -350,274 l -81,70 52,58 c 135,153 129,143 109,161 -17,15 -23,10 -106,-83 l -88,-100 -37,29 c -35,29 -310,306 -344,347 -17,21 -15,23 83,110 93,83 98,89 83,106 -18,20 -8,26 -161,-109 l -58,-52 -70,81 c -91,107 -274,341 -274,350 0,4 44,40 98,79 125,92 119,86 100,106 -16,15 -24,11 -123,-61 -58,-42 -110,-74 -115,-71 -11,7 -222,324 -264,396 l -26,46 205,118 c 112,65 212,123 220,129 13,10 12,15 -10,48 l -25,36 -216,-125 C 901,3096 886,3088 873,3106 c -16,21 -195,374 -216,425 l -15,36 119,53 c 89,39 119,57 119,71 0,10 -4,20 -9,23 -5,4 -64,-18 -130,-48 l -121,-55 -16,37 c -75,177 -189,483 -181,486 1,1 58,20 127,42 107,35 125,44 122,60 -6,29 -8,29 -70,9 -31,-10 -89,-28 -128,-40 l -72,-23 -46,162 c -64,226 -97,369 -85,376 5,4 61,17 125,30 113,23 133,33 121,64 -4,11 -29,8 -134,-15 -70,-15 -129,-26 -132,-24 -7,8 -53,272 -70,407 l -17,138 30,4 c 17,3 58,8 91,11 138,13 145,15 145,41 0,28 6,28 -150,10 -63,-7 -117,-11 -119,-9 -8,6 -30,329 -30,436 l -1,97 h 255 255 v 45 45 H 385 130 l 1,98 c 0,105 22,429 30,436 2,2 60,-2 128,-10 68,-7 128,-11 133,-8 4,3 8,14 8,24 0,20 -7,22 -174,40 -49,5 -90,11 -91,12 -7,9 73,518 84,537 4,6 47,1 116,-14 142,-31 155,-31 155,-2 0,22 -8,25 -121,48 -66,13 -124,26 -129,29 -18,11 125,544 144,537 68,-25 246,-80 250,-77 2,3 6,14 8,24 2,16 -15,25 -112,57 -63,22 -120,41 -127,43 -9,4 -2,33 21,103 31,89 109,291 150,385 l 16,37 112,-51 c 132,-59 143,-61 143,-30 0,23 -13,30 -212,117 l -22,10 32,70 c 48,102 184,367 200,389 14,19 24,14 224,-102 116,-67 215,-122 221,-122 5,0 19,16 31,35 l 20,34 -92,54 c -51,30 -149,87 -219,128 l -127,73 26,46 c 41,71 252,388 263,395 6,3 58,-29 116,-71 101,-73 107,-77 120,-59 17,23 20,20 -96,103 -51,37 -95,72 -97,78 -4,11 152,214 269,349 l 72,84 42,-37 c 24,-20 70,-61 102,-89 57,-50 60,-52 76,-35 15,18 10,24 -84,107 -78,69 -97,91 -90,104 5,9 92,99 195,201 l 186,185 37,-40 c 20,-22 62,-68 93,-103 53,-59 57,-61 72,-44 16,17 12,24 -68,113 -47,52 -84,99 -82,105 5,25 396,345 420,344 7,-1 45,-48 86,-105 65,-93 76,-103 93,-94 25,14 22,20 -62,134 -39,53 -68,100 -65,106 7,11 324,221 396,263 l 47,27 126,-220 127,-221 36,23 c 20,13 36,26 35,30 0,5 -55,103 -122,219 -67,116 -118,214 -113,219 10,10 323,174 373,196 19,8 49,21 66,29 l 31,13 53,-119 c 29,-66 58,-120 64,-120 39,1 36,18 -18,139 l -55,122 47,21 c 132,57 472,183 477,175 1,-1 19,-57 40,-124 35,-113 40,-123 63,-123 29,0 29,3 -22,163 -19,59 -32,107 -30,107 2,0 65,18 141,41 196,57 386,100 393,89 4,-6 17,-62 30,-126 23,-113 33,-133 64,-121 10,4 8,30 -15,134 -15,70 -24,131 -21,134 15,13 530,92 541,83 2,-2 30,-229 31,-256 0,-5 11,-8 25,-8 29,0 29,-6 11,150 -7,63 -11,117 -9,120 8,8 271,27 406,29 l 127,1 z" />
    <path
       style="opacity:0.61000001;fill:#6fb4e9;fill-opacity:1;stroke:none;stroke-width:2.07091641;stroke-opacity:1"
       d="m 541.22627,1175.3847 c -5.38457,-0.8292 -5.43519,-0.9988 -4.38554,-14.7039 1.25721,-16.4151 -1.56549,-15.8053 -3.82237,0.8258 -0.86436,6.3696 -1.92194,11.9314 -2.35018,12.3596 -1.04387,1.0439 -50.37051,-6.5582 -52.96744,-8.1632 -1.28324,-0.7931 -1.37117,-4.1531 -0.23656,-9.0393 0.99325,-4.2773 1.81387,-10.1067 1.82361,-12.9543 0.0269,-7.8484 -3.63051,-1.0102 -5.27471,9.8624 -0.73416,4.8547 -2.07789,9.286 -2.98605,9.8473 -2.08326,1.2876 -50.02784,-10.9817 -52.47462,-13.4285 -1.03528,-1.0352 -0.37308,-6.0346 1.54492,-11.6636 1.84626,-5.4185 3.35683,-11.27 3.35683,-13.0034 0,-5.4436 -3.44265,0.1975 -7.21611,11.824 -4.2005,12.9424 -2.16359,12.9329 -35.21715,0.1657 l -21.70265,-8.3828 3.2554,-7.6246 c 6.02647,-14.115 7.15696,-17.5138 6.15764,-18.5131 -0.54719,-0.5472 -3.56315,4.2416 -6.70208,10.6418 -3.13895,6.4002 -7.06638,11.6367 -8.72761,11.6367 -2.82647,0 -40.90422,-19.3912 -44.23326,-22.5259 -0.83649,-0.7877 3.64527,-10.6023 9.95943,-21.8103 10.3055,-18.2928 12.57524,-26.075 7.60507,-26.075 -0.92904,0 -7.35228,9.8118 -14.27386,21.8039 l -12.58469,21.8039 -22.03219,-14.5209 c -12.1177,-7.9866 -22.03217,-15.154 -22.03217,-15.9276 0,-0.7737 2.91563,-5.9503 6.47916,-11.5036 8.70944,-13.5725 6.30529,-14.8399 -3.308,-1.744 -4.57528,6.2328 -8.6514,9.8983 -10.08468,9.0689 -8.96421,-5.1873 -40.71755,-31.8742 -40.71755,-34.2207 0,-0.9185 3.34764,-5.3754 7.43922,-9.9043 4.09156,-4.5288 7.07096,-9.3391 6.62085,-10.6894 -0.45009,-1.3502 -4.37595,1.8866 -8.72414,7.1929 -4.34818,5.3064 -8.93998,9.648 -10.20399,9.648 -3.11076,0 -38.62119,-35.51405 -38.62119,-38.62513 0,-1.35875 3.8887,-5.79902 8.64155,-9.86729 4.75286,-4.06826 8.03918,-7.99923 7.30294,-8.73546 -0.73624,-0.73623 -5.09358,2.05377 -9.68298,6.20001 -4.58939,4.14625 -9.26649,7.53863 -10.39354,7.53863 -1.75331,0 -35.21538,-40.27362 -35.21538,-42.38383 0,-0.41397 4.80347,-4.27874 10.67438,-8.58838 5.87091,-4.30964 9.66645,-8.17169 8.43454,-8.58231 -1.23191,-0.41064 -6.1752,2.10416 -10.98509,5.58841 -4.8099,3.48428 -9.55301,6.33504 -10.54026,6.33504 -0.98724,0 -8.34305,-9.93518 -16.34623,-22.07821 L 91.928302,890.3905 113.74201,877.78083 c 11.99754,-6.93529 21.82295,-13.33782 21.83424,-14.22782 0.0641,-5.05135 -8.2869,-2.62875 -26.28913,7.62638 C 85.603475,884.671 88.917593,886.16701 73.221039,854.89882 l -10.354678,-20.62695 10.886767,-4.80463 c 11.898593,-5.25118 13.360368,-6.22144 11.769686,-7.81212 -0.584253,-0.58424 -6.27597,1.24347 -12.64826,4.06159 l -11.58598,5.12388 -8.587519,-22.18212 C 40.699804,777.65849 40.714079,777.49486 55.8665,772.3787 c 6.834025,-2.30749 11.264763,-4.58233 9.846085,-5.05523 -1.418677,-0.47289 -7.326819,0.71702 -13.129206,2.64427 -5.867123,1.94874 -11.322456,2.71338 -12.290559,1.7227 -2.599174,-2.65985 -14.873866,-50.16508 -13.525625,-52.34658 0.640001,-1.03554 5.119382,-2.53478 9.95418,-3.33165 15.24987,-2.51345 16.188745,-5.35957 1.299074,-3.93803 l -13.704218,1.30838 -2.348863,-13.1551 c -7.68137,-43.02045 -7.689137,-42.96385 5.941761,-43.29721 3.986514,-0.0975 9.112032,-1.018 11.39004,-2.04555 2.921212,-1.31768 0.229083,-1.77479 -9.134972,-1.55111 -16.257337,0.38836 -16.198993,0.49385 -16.9787,-30.70358 l -0.563239,-22.53612 25.246225,-0.58147 c 23.537228,-0.54211 25.246225,-0.85753 25.246225,-4.65957 0,-3.83618 -1.513546,-4.07809 -25.51521,-4.07809 H 12.084286 l 0.731063,-18.12051 c 0.402085,-9.96629 1.234083,-22.14814 1.848886,-27.07078 l 1.117821,-8.95025 13.602298,1.45669 c 8.899176,0.95303 13.15984,0.74078 12.322626,-0.61387 -0.703819,-1.13879 -6.891999,-2.7055 -13.75151,-3.48158 -6.859512,-0.77605 -12.471657,-2.06369 -12.471433,-2.86138 10e-4,-3.57505 8.500868,-53.09571 9.240442,-53.8353 0.455362,-0.45535 5.597667,0.19508 11.427347,1.44525 12.955617,2.77849 15.125927,2.82993 13.575876,0.32191 -0.663274,-1.07319 -5.223655,-2.55378 -10.134185,-3.29015 -14.968857,-2.24471 -14.912716,-2.07376 -8.569276,-26.09429 3.118825,-11.80996 6.132225,-23.56948 6.696451,-26.13224 1.208406,-5.48869 4.984433,-5.83145 17.11035,-1.55318 4.842422,1.7085 9.805533,3.10637 11.029136,3.10637 4.358651,0 -1.750546,-3.57747 -12.582323,-7.36803 -5.979771,-2.0926 -10.867776,-4.78553 -10.862232,-5.98428 0.01967,-4.23482 16.45218,-46.39698 19.62581,-50.35519 0.240137,-0.29949 5.73195,1.79731 12.204032,4.65957 13.153411,5.81705 14.55036,6.15176 12.616601,3.02287 -0.741442,-1.19968 -6.415337,-4.42221 -12.608655,-7.16119 l -11.260579,-4.97997 11.38722,-22.70547 c 6.262971,-12.48799 12.384105,-23.32158 13.60252,-24.07459 1.218416,-0.75302 11.148843,3.83381 22.067618,10.19295 10.91878,6.35914 20.56787,11.56209 21.44243,11.56209 0.87456,0 2.1,-1.32872 2.72318,-2.95271 0.78917,-2.05654 -5.4765,-6.80836 -20.64423,-15.65633 l -21.777292,-12.70361 3.62213,-5.57057 C 115.0824,264.78216 121.9568,255.5595 123.96691,256.72373 c 1.27091,0.73609 6.33687,4.06531 11.25768,7.39829 4.92081,3.33297 9.39847,5.60839 9.95035,5.05651 0.75304,-0.75303 -13.72708,-13.5276 -19.66287,-17.34686 -0.63228,-0.40684 10.23477,-14.62811 31.0856,-40.68051 3.36761,-4.20772 3.48661,-4.1679 13.26329,4.43788 12.38795,10.9043 15.28404,9.24229 3.47485,-1.99415 -4.81041,-4.5771 -8.7462,-8.96927 -8.7462,-9.76038 0,-0.79111 8.64854,-10.05095 19.21898,-20.57744 l 19.21898,-19.13907 9.12696,9.2997 c 11.79546,12.01868 13.38691,10.39773 2.52674,-2.57355 l -8.4185,-10.05497 20.43106,-16.38189 c 11.23708,-9.01003 21.36989,-16.69482 22.51734,-17.07731 1.14745,-0.38248 5.63134,4.05303 9.96419,9.8567 9.47457,12.69082 11.92647,10.29245 2.89606,-2.83282 -3.49882,-5.08535 -6.35374,-10.01009 -6.34426,-10.94387 0.0166,-1.61396 36.7812,-26.736097 42.13116,-28.789073 1.52836,-0.586483 7.43428,7.643253 14.82153,20.653323 10.38763,18.29425 12.83138,21.33362 15.85284,19.71658 3.18286,-1.70341 2.24699,-4.21526 -8.58831,-23.05065 -6.68826,-11.62641 -11.68952,-21.900932 -11.11391,-22.832268 0.94115,-1.52283 45.04247,-24.345905 47.04389,-24.345905 0.45618,0 2.90972,5.125518 5.45231,11.39004 2.54259,6.264522 5.44655,11.390041 6.45327,11.390041 2.57564,0 2.43326,-0.589634 -3.24033,-13.41864 l -5.07074,-11.465821 7.65939,-3.284954 c 4.21266,-1.806726 16.21766,-6.419617 26.67779,-10.250871 l 19.01845,-6.965914 3.49846,10.78533 c 6.0611,18.685529 9.70844,18.903756 4.04723,0.242153 -1.69616,-5.591292 -3.09403,-10.751892 -3.10637,-11.467998 -0.0315,-1.830187 39.47564,-12.462798 47.79656,-12.863552 6.67492,-0.321478 6.94025,-0.01839 9.36581,10.698842 1.37293,6.066331 3.17295,11.657805 4.00003,12.425498 1.57028,1.457538 -0.45204,-18.247921 -2.39139,-23.30182 -1.18839,-3.096895 5.53117,-4.847948 37.18643,-9.690407 18.66501,-2.855277 19.88617,-2.146225 19.99147,11.607952 0.0348,4.556017 1.05139,9.681535 2.2589,11.390041 1.60351,2.268794 1.9398,-0.64594 1.24723,-10.810032 -0.79128,-11.61252 -0.38859,-14.080468 2.43237,-14.907407 1.85935,-0.545051 14.3306,-1.63167 27.71389,-2.414708 l 24.33327,-1.423707 V 38.59403 c 0,21.879803 0.50905,26.167967 3.10638,26.167967 2.5891,0 3.10637,-4.149054 3.10637,-24.915992 0,-20.054395 0.59628,-25.144804 3.05595,-26.088667 1.68075,-0.644971 14.02859,-0.382745 27.43964,0.582724 l 24.38369,1.7554 -0.72144,14.226812 c -0.86947,17.145471 2.67293,17.235059 4.44015,0.112291 0.66238,-6.417829 1.68552,-12.14997 2.27364,-12.738092 1.14828,-1.148284 29.01513,2.542153 45.43501,6.017009 8.78727,1.859609 9.8737,2.661468 8.90041,6.569193 -3.16358,12.701741 -3.92313,22.635443 -1.62205,21.213288 1.31249,-0.811151 2.39152,-3.050667 2.39787,-4.976704 0.0276,-8.345039 4.43634,-19.033823 7.85172,-19.035823 1.93972,-0.0011 14.01078,2.900728 26.82458,6.448586 23.88382,6.612904 24.95007,7.440772 21.53014,16.716473 -0.97224,2.636908 -2.40746,7.435221 -3.1894,10.662918 -2.34763,9.690661 2.24003,4.393704 6.00062,-6.928356 2.06301,-6.211165 4.65662,-10.330224 6.5045,-10.330224 3.95363,0 46.5991,16.042284 48.98322,18.426405 1.02852,1.028529 0.37306,4.579521 -1.52166,8.243501 -5.08829,9.839644 -7.44859,16.819339 -5.68778,16.819339 0.87356,0 4.10887,-5.139408 7.1896,-11.420908 l 5.60134,-11.420909 7.77328,3.241398 c 6.85677,2.859207 37.51426,18.986131 39.64735,20.855897 0.44568,0.390647 -4.44686,10.085108 -10.87231,21.543244 -6.42544,11.45813 -11.6826,21.63313 -11.6826,22.6111 0,0.97797 1.25433,2.25946 2.78743,2.84776 1.8485,0.70934 6.90584,-6.17743 15.01414,-20.4453 7.87922,-13.86481 13.20278,-21.16357 14.97174,-20.526765 6.60659,2.37829 41.77883,26.503025 41.77081,28.650725 -0.004,1.30664 -2.76382,6.52845 -6.13101,11.60401 -6.61256,9.96756 -6.48279,15.05029 0.1518,5.94255 2.21586,-3.0419 5.76487,-7.67462 7.88665,-10.29493 l 3.85783,-4.76419 15.24234,11.83359 c 8.3833,6.50847 18.3355,14.43317 22.11602,17.61043 l 6.87364,5.77684 -8.68203,9.86331 c -4.77512,5.42482 -8.03919,10.50614 -7.25351,11.29183 0.78569,0.78568 4.70546,-2.5165 8.71061,-7.33817 4.00509,-4.82168 8.38804,-8.76669 9.73983,-8.76669 1.35177,0 11.12368,8.70208 21.7153,19.33795 l 19.2576,19.33794 -9.9794,8.43416 c -5.4886,4.63878 -9.4051,9.01404 -8.7033,9.72279 0.7018,0.70877 5.2165,-2.00359 10.0328,-6.02747 4.8162,-4.02387 9.4114,-7.31612 10.2115,-7.31612 3.2499,0 35.4299,37.70121 35.4299,41.50868 0,0.97987 -4.1936,4.66687 -9.3191,8.19331 -5.1255,3.52644 -9.3191,7.35386 -9.3191,8.50538 0,2.335 2.2753,1.26957 11.39,-5.33354 3.417,-2.47541 7.3765,-5.18796 8.7989,-6.02788 1.7543,-1.03592 7.2497,5.63724 17.0851,20.74675 7.9744,12.25061 14.4833,22.78892 14.4641,23.41846 -0.019,0.62954 -9.7548,6.55555 -21.6349,13.16889 -15.3055,8.52021 -21.2658,12.8956 -20.4528,15.01415 0.631,1.64443 1.7889,2.98986 2.573,2.98986 0.7842,0 10.7024,-5.12551 22.0406,-11.39004 11.3381,-6.26452 21.0808,-11.38086 21.6505,-11.36964 1.2591,0.0249 19.6147,34.1071 22.6053,41.97311 2.0573,5.41116 1.6874,5.85835 -9.7154,11.7446 -13.3289,6.88049 -10.6119,8.48245 3.516,2.07301 5.0366,-2.28499 9.893,-3.4189 10.792,-2.51985 2.2207,2.22062 18.3625,45.41913 18.3625,49.14129 0,1.78726 -4.5417,4.40418 -11.3901,6.56292 -6.2645,1.97472 -11.39,4.35211 -11.39,5.28312 0,2.10914 -0.84,2.21683 11.2014,-1.43606 5.5913,-1.69618 11.2886,-3.08397 12.6606,-3.08397 2.345,0 11.5727,29.12837 14.5336,45.87714 1.4652,8.28791 1.2174,8.48487 -14.0852,11.19742 -4.2838,0.75934 -8.3792,2.33589 -9.1008,3.50341 -1.2421,2.00983 3.2385,1.62414 20.3161,-1.74882 5.1363,-1.01444 5.6365,-0.43154 7.6145,8.87222 2.9497,13.87487 6.9882,44.39206 6.0047,45.37549 -0.4476,0.44763 -6.5628,1.41477 -13.5893,2.14918 -7.0265,0.73443 -12.7755,2.24303 -12.7755,3.35246 0,1.247 5.0686,1.47437 13.2754,0.59549 15.8509,-1.69749 14.8422,-3.46027 16.8314,29.41426 l 1.4096,23.29781 h -25.0773 c -23.6967,0 -25.0774,0.22803 -25.0774,4.14184 0,3.91359 1.3807,4.14183 25.0553,4.14183 h 25.0553 l -1.3983,24.33327 c -0.7691,13.38329 -1.7797,25.73113 -2.2457,27.43964 -0.6641,2.43449 -3.8773,3.0031 -14.8556,2.62884 -9.7525,-0.33244 -12.7499,0.0953 -9.8663,1.40764 2.278,1.03683 7.4035,1.96493 11.39,2.06243 13.0158,0.31832 13.2717,1.03181 9.4157,26.25642 -5.0382,32.95748 -3.339,30.43467 -19.4616,28.89453 -15.0175,-1.43459 -14.0168,1.417 1.3887,3.95721 4.9201,0.81126 9.4131,2.69347 9.9846,4.18267 1.1851,3.0884 -11.5345,52.80615 -13.501,52.77192 -0.708,-0.0124 -5.862,-1.41021 -11.4533,-3.10637 -11.6646,-3.5386 -14.3429,-3.81022 -12.7897,-1.29712 0.6074,0.98275 5.4068,2.99144 10.6653,4.46375 5.2586,1.4723 10.0506,3.95264 10.6489,5.51187 1.1571,3.01536 -12.5787,41.56671 -16.9308,47.51855 -2.4308,3.32433 -3.1178,3.31586 -11.6789,-0.14435 -5.003,-2.02204 -10.2612,-4.13984 -11.6849,-4.70622 -1.4238,-0.56639 -2.5887,-0.10644 -2.5887,1.02217 0,1.12856 5.1256,4.13224 11.3901,6.67483 6.2645,2.54259 11.39,4.99613 11.39,5.45231 0,3.43544 -23.3308,46.3206 -25.1998,46.3206 -1.3119,0 -11.1618,-4.73136 -21.8889,-10.51415 -17.4085,-9.38471 -25.4807,-11.49779 -25.3498,-6.6359 0.024,0.89 8.6442,6.50794 19.156,12.48432 10.5118,5.97637 20.3938,11.69483 21.9599,12.7077 2.243,1.45059 0.1323,6.03305 -9.9421,21.58458 -7.0343,10.85864 -14.0944,20.8259 -15.6892,22.14947 -2.2836,1.89522 -4.9162,1.01901 -12.3918,-4.12434 -12.4994,-8.59979 -16.5624,-7.07031 -4.4071,1.65897 5.1705,3.71315 9.9684,7.66948 10.662,8.79179 1.1822,1.9128 -24.115,35.47475 -31.1225,41.29045 -2.7076,2.24715 -4.8021,1.31178 -13.5165,-6.03633 -12.8655,-10.84833 -13.4867,-8.28483 -0.9693,4.00006 l 9.3431,9.16958 -19.139,19.21898 c -10.52653,10.5705 -19.93808,19.219 -20.9146,19.219 -0.97652,0 -5.85046,-4.4266 -10.83099,-9.8368 -4.98051,-5.4103 -9.09251,-8.6512 -9.13771,-7.202 -0.0451,1.4492 3.67063,6.7063 8.25746,11.6824 l 8.33973,9.0476 -9.89291,8.7158 c -5.44109,4.7937 -15.34659,12.8185 -22.01223,17.8329 l -12.11935,9.1171 -8.32316,-10.4534 c -10.64679,-13.3718 -12.86866,-11.6078 -3.04845,2.4202 l 7.47315,10.6753 -4.56969,3.5737 c -9.79278,7.6583 -37.33696,24.8384 -39.82248,24.8384 -1.4422,0 -7.89872,-9.3192 -14.34782,-20.7092 -6.44908,-11.39 -12.54984,-20.7092 -13.55722,-20.7092 -5.05465,0 -3.38538,5.9819 7.15053,25.624 l 11.53171,21.4986 -4.73702,3.1038 c -8.59852,5.634 -38.65235,20.1848 -41.69042,20.1848 -1.63959,0 -4.57758,-4.1804 -6.52886,-9.2897 -1.95127,-5.1094 -4.82409,-10.349 -6.38403,-11.6436 -3.9266,-3.2589 -3.60364,-1.6292 2.34105,11.8128 2.84751,6.4387 5.17729,11.9861 5.17729,12.3275 0,0.8983 -41.44159,16.9387 -47.92635,18.5503 -5.12871,1.2747 -5.69773,0.6664 -9.05595,-9.6809 -3.32101,-10.2325 -7.21611,-17.3524 -7.21611,-13.1903 0,0.9819 1.57193,6.7721 3.4932,12.867 2.35438,7.469 2.81057,11.7643 1.39926,13.1756 -1.15166,1.1517 -13.14202,4.8842 -26.64522,8.2945 -27.20035,6.8695 -26.72737,6.9943 -28.92058,-7.6311 -0.73637,-4.9105 -2.21695,-9.4709 -3.29015,-10.1342 -2.44403,-1.5105 -2.4193,3.8413 0.0673,14.5686 1.05588,4.555 1.20285,8.9988 0.3266,9.875 -1.42885,1.4289 -21.49863,5.2413 -45.21297,8.5886 l -8.69768,1.2277 -1.41191,-12.4798 c -0.77655,-6.8638 -2.34368,-13.0555 -3.48247,-13.7594 -1.35372,-0.8366 -1.57156,3.3799 -0.62923,12.1792 l 1.44132,13.4589 -7.89943,1.3053 c -4.34468,0.7179 -16.98558,1.3156 -28.09087,1.3281 l -20.19141,0.023 v -24.851 c 0,-20.7092 -0.51773,-24.851 -3.10637,-24.851 -2.58865,0 -3.10638,4.1418 -3.10638,24.851 v 24.851 l -22.26235,-0.3103 c -12.24429,-0.1706 -24.7137,-0.6878 -27.70977,-1.1491 z"
       id="path851"
       inkscape:connector-curvature="0"
       transform="scale(10)" />
  </g>
</svg>
