<?xml version="1.0" encoding="UTF-8" standalone="no"?>
<svg
   xmlns:dc="http://purl.org/dc/elements/1.1/"
   xmlns:cc="http://creativecommons.org/ns#"
   xmlns:rdf="http://www.w3.org/1999/02/22-rdf-syntax-ns#"
   xmlns:svg="http://www.w3.org/2000/svg"
   xmlns="http://www.w3.org/2000/svg"
   xmlns:sodipodi="http://sodipodi.sourceforge.net/DTD/sodipodi-0.dtd"
   xmlns:inkscape="http://www.inkscape.org/namespaces/inkscape"
   version="1.0"
   width="1204px"
   height="1188px"
   viewBox="0 0 12040 11880"
   preserveAspectRatio="xMidYMid meet"
   id="svg41"
   sodipodi:docname="circle.svg"
   inkscape:version="0.92.2 5c3e80d, 2017-08-06"
   inkscape:export-filename="/Users/shuichi-fu/Downloads/circle2.png"
   inkscape:export-xdpi="95.404457"
   inkscape:export-ydpi="95.404457">
  <metadata
     id="metadata47">
    <rdf:RDF>
      <cc:Work
         rdf:about="">
        <dc:format>image/svg+xml</dc:format>
        <dc:type
           rdf:resource="http://purl.org/dc/dcmitype/StillImage" />
      </cc:Work>
    </rdf:RDF>
  </metadata>
  <defs
     id="defs45" />
  <sodipodi:namedview
     pagecolor="#ffffff"
     bordercolor="#666666"
     borderopacity="1"
     objecttolerance="10"
     gridtolerance="10"
     guidetolerance="10"
     inkscape:pageopacity="0"
     inkscape:pageshadow="2"
     inkscape:window-width="1440"
     inkscape:window-height="805"
     id="namedview43"
     showgrid="false"
     inkscape:zoom="0.50886622"
     inkscape:cx="238.96863"
     inkscape:cy="582.71846"
     inkscape:window-x="0"
     inkscape:window-y="1"
     inkscape:window-maximized="1"
     inkscape:current-layer="layer101" />
  <g
     id="layer101"
     fill="#040404"
     stroke="none">
    <rect
       style="fill:#f9f9f9;fill-opacity:1;stroke:none;stroke-width:10.14377022;stroke-opacity:1"
       id="rect915"
       width="11971.495"
       height="11869.524"
       x="19.820356"
       y="-29.333206"
       inkscape:export-xdpi="95.404457"
       inkscape:export-ydpi="95.404457" />
    <path
       d="M5805 11863 c-1008 -22 -1985 -303 -2884 -828 -115 -68 -479 -318 -601 -415 -234 -184 -322 -263 -549 -491 -307 -306 -508 -548 -726 -874 -364 -544 -606 -1063 -785 -1685 -216 -749 -277 -1612 -170 -2405 118 -880 427 -1707 915 -2449 152 -231 281 -402 475 -630 97 -115 481 -499 596 -596 228 -194 399 -323 630 -475 412 -271 830 -478 1289 -638 635 -222 1263 -327 1950 -327 680 0 1273 97 1910 313 711 242 1353 610 1954 1122 122 103 503 484 606 606 165 192 313 390 450 595 77 116 149 227 160 245 416 713 678 1470 780 2254 62 480 62 1062 0 1540 -73 561 -238 1143 -465 1644 -242 534 -525 979 -919 1445 -98 116 -501 519 -617 617 -605 512 -1190 848 -1929 1111 -621 220 -1374 337 -2070 321z m95 -343 l0 -250 45 0 45 0 0 250 0 250 113 -1 c117 0 413 -21 420 -29 2 -3 -2 -61 -9 -129 -7 -69 -11 -128 -8 -133 3 -4 14 -8 24 -8 20 0 22 7 40 174 5 49 11 90 12 91 10 9 526 -72 540 -84 4 -3 -4 -55 -17 -116 -31 -142 -31 -155 -2 -155 21 0 25 9 47 120 13 67 27 125 30 130 3 5 59 -3 130 -20 121 -28 399 -106 406 -113 2 -2 -14 -57 -36 -123 -22 -65 -38 -125 -35 -131 2 -7 13 -13 23 -13 14 0 25 22 51 103 19 56 37 112 42 124 l8 22 118 -40 c129 -44 384 -146 394 -157 4 -4 -18 -61 -48 -126 -53 -118 -56 -135 -17 -136 6 0 35 53 64 118 28 64 53 118 54 120 8 7 446 -215 469 -238 5 -4 -46 -102 -112 -218 -67 -115 -121 -214 -121 -220 0 -5 16 -19 35 -31 l35 -20 33 57 c18 31 75 130 126 219 l93 162 28 -14 c79 -41 420 -269 420 -281 0 -2 -35 -52 -77 -110 -74 -102 -76 -107 -58 -121 23 -16 15 -24 113 111 34 47 66 86 71 86 12 0 226 -168 343 -268 l87 -75 -52 -59 c-135 -153 -129 -143 -109 -161 17 -15 23 -10 106 83 49 55 91 100 95 100 8 0 391 -383 391 -391 0 -4 -45 -46 -100 -95 -93 -83 -98 -89 -83 -106 18 -20 8 -26 161 109 l59 52 75 -87 c100 -117 268 -331 268 -343 0 -5 -39 -37 -86 -71 -135 -98 -127 -90 -111 -113 14 -18 19 -16 121 58 58 42 108 77 110 77 12 0 240 -341 281 -420 l14 -28 -162 -93 c-89 -51 -188 -108 -219 -126 l-57 -33 20 -35 c12 -19 26 -35 31 -35 6 0 105 54 220 121 116 66 214 117 218 112 23 -23 245 -461 238 -469 -2 -1 -56 -26 -120 -54 -65 -29 -118 -58 -118 -64 1 -39 18 -36 136 17 65 30 122 52 126 48 11 -10 113 -265 157 -394 l40 -118 -22 -8 c-12 -5 -68 -23 -124 -42 -81 -26 -103 -37 -103 -51 0 -10 6 -21 13 -23 6 -3 66 13 131 35 66 22 121 38 123 36 7 -7 85 -285 113 -406 17 -71 25 -127 20 -130 -5 -3 -63 -17 -130 -30 -111 -22 -120 -26 -120 -47 0 -29 13 -29 155 2 61 13 113 21 116 17 12 -14 93 -530 84 -540 -1 -1 -42 -7 -91 -12 -167 -18 -174 -20 -174 -40 0 -10 4 -21 8 -24 5 -3 64 1 133 8 68 7 126 11 129 9 8 -7 29 -303 29 -420 l1 -113 -250 0 -250 0 0 -45 0 -45 250 0 250 0 -1 -112 c0 -118 -21 -414 -29 -421 -3 -2 -57 2 -120 9 -156 18 -150 18 -150 -11 0 -14 3 -25 8 -25 27 -1 254 -29 256 -31 9 -11 -70 -526 -83 -541 -3 -3 -64 6 -134 21 -104 23 -130 25 -134 15 -12 -31 8 -41 121 -64 64 -13 120 -26 126 -30 11 -7 -32 -197 -89 -393 -23 -76 -41 -139 -41 -141 0 -2 -48 11 -107 30 -160 51 -163 51 -163 22 0 -23 10 -28 123 -63 67 -21 123 -39 124 -40 8 -5 -118 -345 -175 -477 l-21 -47 -122 55 c-121 54 -138 57 -139 18 0 -6 54 -35 120 -64 l119 -53 -14 -33 c-8 -19 -21 -49 -29 -67 -21 -48 -186 -361 -195 -370 -5 -5 -104 47 -222 115 -117 68 -215 123 -217 123 -3 0 -15 -17 -28 -37 l-24 -37 221 -127 220 -126 -27 -47 c-42 -72 -252 -389 -263 -396 -6 -3 -53 26 -106 65 -114 84 -120 87 -134 62 -9 -17 1 -28 94 -93 57 -41 104 -79 105 -86 1 -24 -319 -415 -344 -420 -6 -2 -53 35 -105 82 -89 80 -96 84 -113 68 -17 -15 -15 -19 44 -72 35 -31 81 -73 103 -93 l40 -37 -185 -186 c-102 -103 -192 -190 -201 -195 -13 -7 -35 12 -104 90 -83 94 -89 99 -107 84 -17 -16 -15 -19 35 -76 28 -32 69 -78 89 -102 l37 -42 -84 -72 c-135 -117 -338 -273 -349 -269 -6 2 -41 46 -78 97 -83 116 -80 113 -103 96 -18 -13 -14 -19 59 -120 42 -58 74 -110 71 -116 -7 -11 -324 -222 -395 -263 l-46 -26 -73 127 c-41 70 -98 168 -128 219 l-54 92 -34 -20 c-19 -12 -35 -26 -35 -31 0 -6 55 -105 122 -221 116 -200 121 -210 102 -224 -22 -16 -287 -152 -389 -200 l-70 -32 -10 22 c-87 199 -94 212 -117 212 -31 0 -29 -11 30 -143 l51 -112 -37 -16 c-94 -41 -296 -119 -385 -150 -70 -23 -99 -30 -103 -21 -2 7 -21 64 -43 127 -32 97 -41 114 -57 112 -10 -2 -21 -6 -24 -8 -3 -4 52 -182 77 -250 7 -19 -526 -162 -537 -144 -3 5 -16 63 -29 129 -23 113 -26 121 -48 121 -29 0 -29 -13 2 -155 15 -69 20 -112 14 -116 -19 -11 -528 -91 -537 -84 -1 1 -7 42 -12 91 -18 167 -20 174 -40 174 -10 0 -21 -4 -24 -8 -3 -5 1 -65 8 -133 8 -68 12 -126 10 -128 -7 -8 -331 -30 -436 -30 l-98 -1 0 255 0 255 -45 0 -45 0 0 -255 0 -255 -97 1 c-107 0 -430 22 -436 30 -2 2 2 56 9 119 18 156 18 150 -10 150 -26 0 -28 -7 -41 -145 -3 -33 -8 -74 -11 -91 l-4 -30 -138 17 c-135 17 -399 63 -407 70 -2 3 9 62 24 132 23 105 26 130 15 134 -31 12 -41 -8 -64 -121 -13 -64 -26 -120 -30 -125 -7 -12 -150 21 -376 85 l-162 46 23 72 c12 39 30 97 40 128 20 62 20 64 -9 70 -16 3 -25 -15 -60 -122 -22 -69 -41 -126 -42 -127 -3 -8 -309 106 -486 181 l-37 16 55 121 c30 66 52 125 48 130 -3 5 -13 9 -23 9 -14 0 -32 -30 -71 -119 l-53 -119 -36 15 c-51 21 -404 200 -425 216 -18 13 -10 28 107 231 l125 216 -36 25 c-33 22 -38 23 -48 10 -6 -8 -64 -108 -129 -220 l-118 -205 -46 26 c-72 42 -389 253 -396 264 -3 5 29 57 71 115 72 99 76 107 61 123 -20 19 -14 25 -106 -100 -39 -54 -75 -98 -79 -98 -9 0 -243 183 -350 274 l-81 70 52 58 c135 153 129 143 109 161 -17 15 -23 10 -106 -83 l-88 -100 -37 29 c-35 29 -310 306 -344 347 -17 21 -15 23 83 110 93 83 98 89 83 106 -18 20 -8 26 -161 -109 l-58 -52 -70 81 c-91 107 -274 341 -274 350 0 4 44 40 98 79 125 92 119 86 100 106 -16 15 -24 11 -123 -61 -58 -42 -110 -74 -115 -71 -11 7 -222 324 -264 396 l-26 46 205 118 c112 65 212 123 220 129 13 10 12 15 -10 48 l-25 36 -216 -125 c-203 -117 -218 -125 -231 -107 -16 21 -195 374 -216 425 l-15 36 119 53 c89 39 119 57 119 71 0 10 -4 20 -9 23 -5 4 -64 -18 -130 -48 l-121 -55 -16 37 c-75 177 -189 483 -181 486 1 1 58 20 127 42 107 35 125 44 122 60 -6 29 -8 29 -70 9 -31 -10 -89 -28 -128 -40 l-72 -23 -46 162 c-64 226 -97 369 -85 376 5 4 61 17 125 30 113 23 133 33 121 64 -4 11 -29 8 -134 -15 -70 -15 -129 -26 -132 -24 -7 8 -53 272 -70 407 l-17 138 30 4 c17 3 58 8 91 11 138 13 145 15 145 41 0 28 6 28 -150 10 -63 -7 -117 -11 -119 -9 -8 6 -30 329 -30 436 l-1 97 255 0 255 0 0 45 0 45 -255 0 -255 0 1 98 c0 105 22 429 30 436 2 2 60 -2 128 -10 68 -7 128 -11 133 -8 4 3 8 14 8 24 0 20 -7 22 -174 40 -49 5 -90 11 -91 12 -7 9 73 518 84 537 4 6 47 1 116 -14 142 -31 155 -31 155 -2 0 22 -8 25 -121 48 -66 13 -124 26 -129 29 -18 11 125 544 144 537 68 -25 246 -80 250 -77 2 3 6 14 8 24 2 16 -15 25 -112 57 -63 22 -120 41 -127 43 -9 4 -2 33 21 103 31 89 109 291 150 385 l16 37 112 -51 c132 -59 143 -61 143 -30 0 23 -13 30 -212 117 l-22 10 32 70 c48 102 184 367 200 389 14 19 24 14 224 -102 116 -67 215 -122 221 -122 5 0 19 16 31 35 l20 34 -92 54 c-51 30 -149 87 -219 128 l-127 73 26 46 c41 71 252 388 263 395 6 3 58 -29 116 -71 101 -73 107 -77 120 -59 17 23 20 20 -96 103 -51 37 -95 72 -97 78 -4 11 152 214 269 349 l72 84 42 -37 c24 -20 70 -61 102 -89 57 -50 60 -52 76 -35 15 18 10 24 -84 107 -78 69 -97 91 -90 104 5 9 92 99 195 201 l186 185 37 -40 c20 -22 62 -68 93 -103 53 -59 57 -61 72 -44 16 17 12 24 -68 113 -47 52 -84 99 -82 105 5 25 396 345 420 344 7 -1 45 -48 86 -105 65 -93 76 -103 93 -94 25 14 22 20 -62 134 -39 53 -68 100 -65 106 7 11 324 221 396 263 l47 27 126 -220 127 -221 36 23 c20 13 36 26 35 30 0 5 -55 103 -122 219 -67 116 -118 214 -113 219 10 10 323 174 373 196 19 8 49 21 66 29 l31 13 53 -119 c29 -66 58 -120 64 -120 39 1 36 18 -18 139 l-55 122 47 21 c132 57 472 183 477 175 1 -1 19 -57 40 -124 35 -113 40 -123 63 -123 29 0 29 3 -22 163 -19 59 -32 107 -30 107 2 0 65 18 141 41 196 57 386 100 393 89 4 -6 17 -62 30 -126 23 -113 33 -133 64 -121 10 4 8 30 -15 134 -15 70 -24 131 -21 134 15 13 530 92 541 83 2 -2 30 -229 31 -256 0 -5 11 -8 25 -8 29 0 29 -6 11 150 -7 63 -11 117 -9 120 8 8 271 27 406 29 l127 1 0 -250z"
       id="path2"
       style="stroke:none;stroke-opacity:1;fill:#ffffff;fill-opacity:1"
       inkscape:export-xdpi="96"
       inkscape:export-ydpi="96" />
    <path
       d="M5350 10895 c0 -8 14 -17 38 -21 20 -4 43 -11 50 -17 9 -7 12 -101 12 -406 0 -218 -4 -402 -9 -410 -5 -8 -26 -17 -47 -20 -25 -4 -39 -12 -39 -21 0 -13 26 -15 158 -18 152 -2 157 -2 157 18 0 16 -7 20 -30 20 -17 0 -39 9 -50 20 -19 19 -20 33 -20 398 0 207 3 387 6 400 5 16 18 25 50 33 25 7 44 17 44 25 0 11 -31 14 -160 14 -133 0 -160 -2 -160 -15z"
       id="path4"
       style="fill:#ffffff;fill-opacity:1;stroke:none"
       inkscape:export-xdpi="96"
       inkscape:export-ydpi="96" />
    <path
       d="M5690 10897 c0 -8 18 -21 39 -29 30 -12 46 -28 68 -66 15 -27 89 -224 163 -436 l135 -387 40 3 39 3 133 388 c164 482 161 474 213 494 22 9 40 22 40 30 0 10 -33 13 -165 13 -137 0 -165 -2 -165 -14 0 -9 16 -18 43 -23 40 -8 42 -10 45 -48 2 -29 -27 -129 -107 -368 -60 -181 -111 -330 -113 -333 -7 -6 -228 660 -228 687 0 33 25 55 73 63 23 4 37 13 37 21 0 13 -25 15 -145 15 -115 0 -145 -3 -145 -13z"
       id="path6"
       style="fill:#ffffff;fill-opacity:1;stroke:none"
       inkscape:export-xdpi="96"
       inkscape:export-ydpi="96" />
    <path
       d="M3890 10484 c-131 -74 -138 -80 -124 -94 8 -8 19 -8 38 0 43 16 60 -1 84 -82 37 -126 163 -620 160 -623 -2 -2 -117 108 -256 243 -275 269 -280 277 -227 326 28 26 33 49 10 44 -31 -7 -624 -353 -621 -363 1 -5 23 -9 48 -7 42 3 48 1 71 -30 33 -45 364 -627 372 -655 5 -17 -1 -30 -20 -49 -14 -14 -24 -33 -21 -40 7 -17 -15 -29 265 133 112 65 202 123 200 128 -2 6 -23 9 -46 7 -37 -3 -44 1 -66 30 -25 33 -315 535 -356 617 -31 59 -23 91 23 91 50 0 93 -34 363 -290 367 -349 336 -324 373 -305 24 12 29 20 25 38 -3 12 -48 194 -100 405 -52 211 -96 403 -97 427 -1 26 5 54 15 69 18 27 22 46 10 46 -5 0 -60 -30 -123 -66z m-597 -456 c32 -43 343 -587 363 -633 18 -45 12 -66 -25 -88 -43 -25 -67 -21 -94 16 -37 49 -367 628 -374 656 -7 29 5 52 38 68 40 21 66 15 92 -19z"
       id="path8"
       style="fill:#ffffff;fill-opacity:1;stroke:none"
       inkscape:export-xdpi="96"
       inkscape:export-ydpi="96" />
    <path
       d="M8015 10460 c-4 -6 2 -21 13 -33 29 -30 42 -70 42 -124 0 -25 -32 -228 -70 -451 -39 -222 -69 -406 -68 -407 2 -1 18 -10 35 -19 l33 -16 314 269 c174 149 333 282 355 296 32 22 49 26 88 23 34 -2 48 1 48 10 0 19 -277 174 -289 162 -7 -7 1 -20 22 -40 35 -31 39 -54 17 -83 -15 -21 -549 -487 -553 -483 -5 6 119 665 134 704 14 38 19 42 49 42 19 0 45 -4 59 -9 17 -7 27 -6 35 3 8 9 -16 27 -102 76 -62 35 -122 70 -134 77 -15 10 -23 11 -28 3z"
       id="path10"
       style="fill:#fffffc;fill-opacity:1;stroke:none"
       inkscape:export-xdpi="96"
       inkscape:export-ydpi="96" />
    <path
       d="M1896 8843 c-50 -87 -64 -118 -54 -124 8 -5 23 2 41 19 27 26 29 26 58 10 29 -17 510 -450 505 -455 -4 -4 -576 163 -624 182 -47 19 -59 44 -43 88 9 22 8 29 -5 34 -8 3 -16 4 -18 2 -1 -2 -91 -159 -200 -348 -120 -209 -195 -349 -191 -359 5 -13 9 -12 28 7 13 11 36 21 52 21 18 0 138 -63 344 -181 174 -100 324 -189 334 -197 13 -12 17 -27 15 -57 -2 -29 1 -40 11 -40 19 0 335 551 327 572 -6 14 -9 13 -29 -6 -45 -41 -36 -45 -411 171 -326 187 -336 194 -336 218 0 43 87 27 502 -90 213 -60 392 -110 396 -110 5 0 15 14 23 32 l15 31 -230 215 c-127 118 -273 256 -323 306 -89 86 -93 93 -93 133 0 29 -4 43 -13 43 -7 0 -43 -52 -81 -117z m-221 -577 c46 -20 592 -332 633 -363 27 -20 33 -31 30 -56 -6 -62 -43 -48 -386 149 -171 99 -321 187 -332 197 -25 21 -26 62 -2 76 22 13 17 13 57 -3z m189 -337 c383 -220 376 -215 376 -250 0 -36 -28 -53 -65 -39 -35 13 -635 358 -657 378 -21 17 -24 68 -5 76 30 13 86 -13 351 -165z"
       id="path12"
       style="fill:#ffffff;fill-opacity:1;stroke:none"
       inkscape:export-xdpi="96"
       inkscape:export-ydpi="96" />
    <path
       d="M9953 8872 c-8 -5 -9 -13 -3 -22 15 -24 11 -66 -7 -82 -10 -9 -160 -97 -334 -197 -338 -194 -363 -204 -395 -156 -13 20 -19 23 -30 14 -12 -10 -12 -15 -1 -33 8 -12 19 -38 26 -58 7 -21 16 -38 21 -38 4 0 110 -178 235 -394 170 -296 230 -393 241 -389 8 3 13 12 10 20 -18 46 -17 61 5 82 24 23 574 341 640 370 47 21 73 18 94 -12 11 -16 18 -18 26 -10 9 9 -54 126 -247 462 -143 248 -261 451 -264 451 -3 0 -10 -4 -17 -8z m111 -221 c26 -29 31 -83 9 -102 -23 -21 -623 -366 -659 -379 -36 -14 -56 -6 -77 29 -23 39 -21 63 6 88 20 19 613 363 647 376 30 11 57 7 74 -12z m116 -211 c26 -14 44 -73 31 -99 -6 -10 -106 -74 -223 -142 -509 -292 -472 -276 -512 -235 -33 32 -34 75 -3 103 19 18 518 307 622 361 46 24 59 26 85 12z m133 -228 c23 -26 35 -64 27 -87 -8 -22 -45 -45 -420 -259 -140 -80 -264 -146 -276 -146 -28 0 -64 44 -64 80 0 15 10 35 23 47 19 18 518 307 622 361 50 26 67 27 88 4z"
       id="path14"
       style="fill:#ffffff;fill-opacity:1;stroke:none"
       inkscape:export-xdpi="96"
       inkscape:export-ydpi="96" />
    <path
       d="M990 6380 c0 -129 3 -160 14 -160 8 0 18 19 25 44 8 32 17 45 33 50 13 3 192 6 398 6 421 0 420 0 420 -66 0 -27 4 -34 20 -34 20 0 20 5 18 158 -3 131 -5 157 -18 157 -9 0 -17 -14 -21 -38 -3 -21 -11 -43 -18 -50 -18 -18 -792 -17 -813 1 -9 7 -18 30 -22 52 -4 26 -12 40 -21 40 -13 0 -15 -25 -15 -160z"
       id="path16"
       style="fill:#fffff9;fill-opacity:1;stroke:none"
       inkscape:export-xdpi="96"
       inkscape:export-ydpi="96" />
    <path
       d="m 9985.163,6313.1091 c 3,-136 5,-163 18,-163 9,0 17,14 21,38 3,21 11,43 18,50 18,18 766,22 801,4 18,-9 28,-25 34,-55 5,-24 15,-42 22,-42 11,0 14,33 14,165 0,138 -2,165 -15,165 -8,0 -17,-14 -21,-37 -4,-21 -11,-44 -17,-50 -7,-10 -101,-13 -408,-13 -441,0 -429,-2 -429,66 0,27 -4,34 -20,34 -20,0 -20,-5 -18,-162 z"
       id="path18"
       inkscape:connector-curvature="0"
       style="fill:#ffffff;fill-opacity:1;stroke:none"
       inkscape:export-xdpi="96"
       inkscape:export-ydpi="96" />
    <path
       d="M1877 6160 c-4 -16 -23 -48 -44 -71 -39 -43 -359 -265 -379 -263 -19 2 -347 215 -382 248 -18 17 -36 44 -40 61 -5 16 -16 31 -25 33 -15 3 -17 -12 -17 -157 0 -136 2 -161 15 -161 8 0 18 12 21 28 8 33 22 52 38 52 10 0 158 -89 295 -177 23 -15 22 -16 -105 -99 -187 -122 -215 -127 -228 -44 -4 26 -12 40 -21 40 -13 0 -15 -24 -15 -150 0 -125 2 -150 15 -150 8 0 18 16 24 36 17 63 58 101 227 214 143 96 168 109 185 99 65 -34 369 -235 396 -262 18 -17 36 -45 39 -64 4 -23 12 -33 25 -33 18 0 19 10 19 165 0 158 -1 165 -20 165 -15 0 -20 -7 -20 -27 0 -40 -14 -56 -42 -51 -25 5 -328 189 -328 199 0 4 66 50 146 103 153 101 193 115 214 77 5 -11 10 -31 10 -45 0 -19 5 -26 20 -26 19 0 20 7 20 145 0 135 -1 145 -19 145 -13 0 -20 -9 -24 -30z"
       id="path20"
       style="fill:#fffff9;fill-opacity:1;stroke:none"
       inkscape:export-xdpi="96"
       inkscape:export-ydpi="96" />
    <path
       d="m 9983.163,5965.1091 c 0,-153 1,-160 20,-160 15,0 20,7 20,28 0,15 7,38 16,50 l 15,22 h 390 c 231,0 398,-4 408,-10 11,-5 21,-26 25,-50 4,-26 11,-40 21,-40 13,0 15,25 15,160 0,135 -2,160 -15,160 -10,0 -17,-14 -21,-40 -4,-25 -14,-45 -25,-51 -12,-6 -165,-9 -414,-7 -435,3 -415,0 -415,66 0,25 -4,32 -20,32 -19,0 -20,-7 -20,-160 z"
       id="path22"
       inkscape:connector-curvature="0"
       style="fill:#ffffff;fill-opacity:1;stroke:none"
       inkscape:export-xdpi="96"
       inkscape:export-ydpi="96" />
    <path
       d="M9975 5768 c-3 -8 -4 -81 -3 -163 3 -125 6 -150 18 -150 9 0 17 14 21 39 3 21 12 42 20 47 8 5 192 9 410 9 305 0 399 -3 406 -12 6 -7 13 -30 17 -50 4 -24 13 -38 21 -38 13 0 15 27 15 165 0 137 -2 165 -14 165 -9 0 -18 -16 -23 -42 -6 -30 -16 -46 -33 -55 -35 -18 -783 -14 -801 4 -7 7 -15 29 -18 49 -6 38 -27 56 -36 32z"
       id="path24"
       style="fill:#ffffff;fill-opacity:1;stroke:none"
       inkscape:export-xdpi="96"
       inkscape:export-ydpi="96" />
    <path
       d="M2217 4324 c-3 -4 -4 -26 0 -50 8 -63 -9 -118 -100 -321 l-82 -183 -40 0 c-22 0 -124 7 -227 15 -192 15 -242 27 -285 67 -19 18 -23 19 -28 5 -8 -19 144 -287 163 -287 9 0 11 12 6 49 -6 43 -4 49 15 54 39 10 361 -16 361 -29 0 -18 -128 -286 -147 -306 -24 -26 -48 -22 -77 13 -17 20 -32 29 -42 25 -14 -5 -13 -10 4 -38 11 -18 44 -73 72 -123 28 -49 56 -94 61 -100 17 -17 28 8 20 45 -13 57 12 144 89 315 39 88 75 164 79 168 10 10 479 -29 517 -43 16 -6 41 -23 57 -38 19 -18 30 -23 38 -15 7 7 -13 53 -73 157 -77 136 -107 170 -100 117 1 -11 3 -31 5 -42 4 -41 -19 -44 -219 -31 -103 7 -190 14 -192 16 -2 3 31 79 74 171 92 197 109 214 165 153 21 -22 33 -28 41 -20 7 7 -10 46 -62 136 -68 121 -79 134 -93 120z"
       id="path26"
       style="fill:#ffffff;fill-opacity:1;stroke:none"
       inkscape:export-xdpi="96"
       inkscape:export-ydpi="96" />
    <path
       d="M9527 4117 c-42 -74 -77 -139 -77 -145 0 -22 26 -12 48 18 16 21 31 30 50 30 34 0 660 -359 685 -393 17 -22 18 -26 3 -62 -19 -45 -19 -42 -2 -48 21 -8 182 272 166 287 -8 8 -17 3 -32 -17 -31 -42 -52 -50 -93 -33 -47 20 -590 332 -634 364 -34 26 -36 38 -15 110 4 15 2 22 -8 22 -7 0 -48 -60 -91 -133z"
       id="path28"
       style="fill:#ffffff;fill-opacity:1;stroke:none"
       inkscape:export-xdpi="96"
       inkscape:export-ydpi="96" />
    <path
       d="M9403 3898 c-5 -7 -43 -71 -83 -141 -58 -101 -70 -131 -60 -137 10 -6 19 -2 28 13 21 32 43 47 67 47 16 0 529 -287 663 -371 31 -19 38 -54 19 -94 -14 -30 -14 -34 0 -39 9 -4 17 -5 18 -4 1 2 37 65 80 141 62 110 75 141 64 147 -10 7 -19 0 -32 -21 -22 -34 -56 -45 -89 -29 -134 69 -644 370 -656 388 -13 20 -13 27 1 62 14 36 13 50 -3 50 -4 0 -12 -6 -17 -12z"
       id="path30"
       style="fill:#ffffff;fill-opacity:1;stroke:none"
       inkscape:export-xdpi="96"
       inkscape:export-ydpi="96" />
    <path
       d="M3394 2765 c-4 -8 6 -28 20 -45 14 -17 30 -47 36 -68 14 -48 29 -219 32 -356 l3 -109 -203 -104 c-197 -101 -206 -105 -260 -101 -35 2 -57 -1 -59 -8 -2 -7 59 -48 136 -92 107 -61 141 -77 145 -65 3 8 -6 24 -21 37 -44 38 -26 57 147 150 l155 84 9 -163 c10 -196 7 -215 -35 -215 -17 0 -39 4 -49 10 -13 7 -21 6 -29 -3 -14 -18 235 -165 252 -148 8 8 3 19 -17 40 -39 40 -54 104 -66 265 -5 78 -12 162 -14 189 l-3 47 101 54 c296 158 327 171 395 171 35 0 66 5 68 10 1 6 -61 47 -140 91 -113 65 -144 79 -150 67 -6 -9 0 -20 18 -35 16 -13 25 -28 23 -41 -3 -23 -30 -40 -219 -140 l-127 -67 -6 107 c-3 60 -9 142 -12 183 -5 65 -3 79 14 100 19 24 20 24 61 8 37 -15 43 -15 48 -2 3 8 4 17 2 19 -2 2 -59 35 -127 74 -95 54 -124 67 -128 56z"
       id="path32"
       style="fill:#ffffff;fill-opacity:1;stroke:none"
       inkscape:export-xdpi="96"
       inkscape:export-ydpi="96" />
    <path
       d="m 7952,2468 c -128,-74 -169,-109 -116,-100 75,14 90,13 106,-5 38,-43 378,-650 378,-675 0,-19 -10,-35 -34,-55 -25,-19 -32,-31 -25,-39 7,-9 46,8 152,69 78,44 144,82 146,83 2,2 1,10 -2,19 -6,13 -10,13 -42,-2 -68,-32 -69,-30 -276,331 -104,181 -189,339 -189,353 0,22 42,73 61,73 5,0 6,7 3,15 -4,8 -9,15 -13,15 -3,0 -70,-37 -149,-82 z"
       id="path34"
       style="fill:#ffffff;fill-opacity:1;stroke:none"
       inkscape:connector-curvature="0"
       inkscape:export-xdpi="96"
       inkscape:export-ydpi="96" />
    <path
       d="M4155 2329 c-5 -7 5 -24 24 -41 37 -34 38 -45 10 -101 -42 -81 -332 -582 -357 -615 -21 -30 -29 -33 -56 -28 -108 22 -94 2 60 -86 105 -60 136 -74 141 -62 3 8 -5 23 -21 35 -17 13 -26 30 -26 48 0 29 334 626 379 677 23 27 31 27 99 8 16 -5 22 -2 22 9 0 9 -43 39 -102 73 -57 32 -117 66 -135 76 -23 14 -33 16 -38 7z"
       id="path36"
       style="fill:#ffffff;fill-opacity:1;stroke:none"
       inkscape:export-xdpi="96"
       inkscape:export-ydpi="96" />
    <path
       d="M5330 1911 c0 -12 9 -20 28 -24 51 -10 82 -48 193 -234 l110 -186 -116 -203 c-113 -198 -116 -203 -160 -220 -25 -9 -45 -23 -45 -30 0 -11 31 -14 155 -14 130 0 155 2 155 15 0 8 -14 18 -32 23 -51 13 -44 46 42 210 66 126 76 140 88 125 39 -54 144 -259 146 -285 1 -32 -10 -43 -56 -53 -16 -3 -28 -12 -28 -20 0 -13 50 -15 375 -15 314 0 375 2 375 14 0 15 -21 26 -50 26 -11 0 -24 9 -30 19 -13 24 -14 790 -1 810 5 8 26 17 47 20 25 4 39 12 39 21 0 13 -52 15 -390 15 -340 0 -390 -2 -390 -15 0 -10 13 -17 35 -20 33 -5 35 -7 34 -41 -1 -25 -26 -82 -80 -182 -43 -81 -82 -147 -85 -147 -12 0 -168 284 -175 317 -7 35 14 53 60 53 19 0 26 5 26 20 0 19 -7 20 -135 20 -125 0 -135 -1 -135 -19z m771 -58 c5 -13 9 -189 9 -391 0 -397 -2 -414 -52 -420 -43 -5 -93 50 -183 203 -125 211 -123 168 -15 357 52 90 109 187 127 216 46 74 94 88 114 35z m233 21 c14 -13 16 -65 16 -413 0 -295 -3 -400 -12 -409 -7 -7 -29 -12 -50 -12 -70 0 -69 -4 -66 432 2 308 6 388 17 401 17 21 75 22 95 1z"
       id="path38"
       style="fill:#ffffff;fill-opacity:1;stroke:none"
       inkscape:export-xdpi="96"
       inkscape:export-ydpi="96" />
    <path
       style="fill:#6fb4e9;fill-opacity:1;stroke:none;stroke-width:20.12853622;stroke-opacity:1"
       d="m 5489.3977,11752.608 -104.4192,-7.349 11.7281,-139.892 c 9.826,-117.205 6.7384,-139.891 -19.0394,-139.891 -23.0113,0 -34.2992,32.981 -44.7785,130.835 -10.5385,98.408 -21.7044,130.836 -45.0509,130.836 -78.5915,0 -460.9288,-65.131 -477.4686,-81.337 -11.3283,-11.1 -10.6439,-61.879 1.7552,-130.291 12.7657,-70.429 13.218,-116.491 1.2158,-123.909 -26.1898,-16.186 -52.5071,29.483 -67.0647,116.379 -22.1973,132.498 -19.958,132.023 -291.2593,61.818 -135.5208,-35.068 -249.0994,-66.459 -252.3969,-69.756 -3.2977,-3.298 10.9085,-59.98 31.5688,-125.96 23.8861,-76.282 30.5933,-127.233 18.4196,-139.925 -25.1864,-26.259 -51.8412,15.695 -80.9085,127.349 -12.4941,47.993 -33.6969,91.474 -47.1174,96.624 -24.9387,9.57 -449.7591,-142.358 -478.5409,-171.139 -8.7384,-8.739 2.2828,-55.942 24.492,-104.895 22.2091,-48.954 40.5792,-104.858 40.8223,-124.232 0.874,-69.531 -42.9275,-33.196 -90.9902,75.482 -26.928,60.889 -58.9575,110.707 -71.1769,110.707 -24.4814,0 -353.5157,-166.692 -407.5928,-206.491 -30.842,-22.698 -23.0383,-44.351 85.1739,-236.337 86.4363,-153.352 113.4188,-218.254 98.3273,-236.51 -42.8563,-51.843 -76.9929,-19.838 -188.0561,176.316 -62.7425,110.812 -120.2819,205.312 -127.8657,209.998 -18.569,11.478 -424.5738,-249.195 -424.5738,-272.595 0,-10.152 27.1735,-55.969 60.3856,-101.817 60.2328,-83.149 76.8612,-137.706 41.9714,-137.706 -10.1279,0 -51.8886,45.602 -92.8016,101.336 l -74.3874,101.336 -73.2588,-54.528 c -173.2733,-128.972 -322.5783,-260.825 -323.6786,-285.844 -0.652,-14.846 30.5155,-64.03 69.2629,-109.297 38.7475,-45.268 70.4499,-89.733 70.4499,-98.811 0,-43.284 -64.857,-7.61 -134.6875,74.085 l -77.4339,90.59 -190.2142,-191.008 -190.2142,-191.0086 84.9253,-86.5326 c 75.8829,-77.3191 107.0134,-135.3302 72.6223,-135.3302 -6.7666,0 -57.1821,37.575 -112.0344,83.5 -84.5872,70.8203 -103.762,79.2257 -126.274,55.3535 -70.265,-74.5112 -292.8591,-363.5455 -292.8591,-380.2721 0,-10.4371 40.407,-48.7016 89.7934,-85.0322 84.9396,-62.485 117.2763,-116.377 69.8294,-116.377 -11.8437,0 -61.0293,27.1736 -109.3015,60.3856 -48.2721,33.2121 -95.1933,60.3035 -104.2693,60.2031 -13.999,-0.161 -92.0167,-111.5248 -255.58565,-364.8466 l -34.24572,-53.0371 212.14677,-124.0002 c 202.2697,-118.2272 249.8788,-169.345 181.9856,-195.3982 -16.7981,-6.446 -120.1731,39.3913 -233.3217,103.4564 -111.7383,63.2668 -210.43901,107.2553 -219.33487,97.7521 -24.42032,-26.0876 -195.79496,-353.5366 -209.6324,-400.5488 -10.0759,-34.2326 6.37562,-50.143 98.63621,-95.392 175.11705,-85.8854 140.06165,-132.424 -39.81429,-52.8563 -52.40134,23.1796 -102.22407,34.5019 -110.71717,25.1607 -17.34792,-19.0803 -181.56726,-442.4874 -181.56726,-468.1354 0,-9.0613 54.34705,-36.2912 120.77122,-60.5106 118.39944,-43.1705 157.79276,-82.1299 83.04484,-82.1299 -20.74952,0 -76.73268,13.7623 -124.40703,30.5827 -47.67434,16.8204 -93.41611,23.6138 -101.64838,15.0964 -15.22631,-15.7538 -105.63149,-326.0809 -128.41137,-440.7879 -12.40381,-62.4589 -11.54018,-63.2246 102.80286,-91.1316 124.77937,-30.4543 170.66464,-77.6865 74.6859,-76.8783 -31.36696,0.264 -90.57345,8.2722 -131.56999,17.796 l -74.53914,17.316 -20.63085,-103.3425 c -28.08953,-140.7037 -61.43152,-357.2795 -61.61696,-400.2382 -0.1164,-26.958 17.56285,-35.6958 75.32995,-37.2314 103.55467,-2.7526 171.36403,-23.9686 182.39718,-57.0682 7.514,-22.5419 -15.76553,-25.4346 -123.63045,-15.3621 -73.08817,6.8252 -136.82023,5.9854 -141.62681,-1.8659 -4.80658,-7.8518 -15.33452,-125.2343 -23.39541,-260.8503 L 143.87552,6010.6427 H 398.06849 652.26148 V 5960.3214 5910 H 398.06849 143.87552 l 14.65616,-246.5745 c 8.06089,-135.616 18.58883,-252.9986 23.39541,-260.8501 4.80658,-7.8516 68.53864,-8.6913 141.62681,-1.866 108.9805,10.1766 131.23237,7.3131 123.68717,-15.9174 -5.61719,-17.2944 -57.63691,-35.5818 -133.56815,-46.9558 -143.06073,-21.4297 -136.67072,-2.8728 -94.08808,-273.2347 47.31057,-300.3799 36.21586,-279.0994 135.49882,-259.8964 125.52042,24.2781 181.06117,22.2535 171.55885,-6.2535 -4.51137,-13.534 -59.61323,-37.1551 -122.44858,-52.491 -62.83535,-15.3357 -114.23231,-38.2293 -114.21548,-50.8745 0.033,-24.8935 120.63827,-482.457 129.51069,-491.35 2.96459,-2.9716 61.12408,11.9435 129.24327,33.1446 77.13832,24.0082 128.46917,31.0785 136.09148,18.7454 17.88143,-28.9328 -9.80431,-47.4849 -128.17296,-85.8879 -58.12114,-18.8564 -105.67481,-43.2971 -105.67481,-54.3124 0,-27.7987 162.66268,-445.8614 181.60307,-466.7415 8.47341,-9.3413 58.28002,1.9806 110.68136,25.1607 176.58092,78.1101 214.94597,34.9161 44.86854,-50.516 -58.12114,-29.1953 -108.5835,-55.6558 -112.13856,-58.8017 -8.04757,-7.1211 194.49032,-415.5265 218.29593,-440.1805 10.04849,-10.4064 104.74298,33.1803 224.82094,103.4822 153.3879,89.8043 214.2429,115.9579 233.484,100.3448 50.2964,-40.8128 12.403,-80.686 -187.0523,-196.8251 -110.7069,-64.4626 -199.02509,-126.8468 -196.26257,-138.6316 9.34165,-39.8511 254.74827,-403.9254 272.26857,-403.9254 9.5609,0 56.8787,27.1735 105.1508,60.3856 153.413,105.5508 184.0528,66.4312 40.2571,-51.3984 -49.8181,-40.8223 -90.5784,-81.9173 -90.5784,-91.3226 0,-14.8315 220.576,-299.3483 293.4956,-378.5745 21.8823,-23.7748 41.3963,-15.1773 125.6375,55.3533 54.8523,45.9251 105.2678,83.5 112.0344,83.5 34.3911,0 3.2606,-58.011 -72.6223,-135.3301 l -84.9253,-86.5325 190.2142,-191.0084 190.2142,-191.0084 77.4339,90.5901 c 70.3519,82.3045 134.6875,117.3153 134.6875,73.2955 0,-9.5121 -37.4888,-59.8843 -83.3086,-111.9383 -46.9305,-53.3158 -75.4962,-101.9091 -65.4177,-111.2823 33.5985,-31.2471 259.2835,-213.9641 331.0411,-268.0145 l 71.6081,-53.9376 74.7141,100.0769 c 41.093,55.0422 83.5966,100.0768 94.4525,100.0768 36.1646,0 20.3876,-53.4492 -40.6473,-137.7055 -33.2121,-45.8479 -60.3856,-90.8948 -60.3856,-100.1042 0,-22.8179 405.9652,-285.81018 423.9909,-274.66968 7.9052,4.88568 65.7078,99.54758 128.4502,210.35988 111.0632,196.1538 145.1998,228.1592 188.0561,176.3161 15.0916,-18.2562 -11.8909,-83.1579 -98.3273,-236.5103 -110.5469,-196.1281 -116.5788,-213.26926 -83.7524,-238.00401 41.0078,-30.89929 392.5241,-204.82375 413.9665,-204.82375 7.932,0 36.4537,49.81813 63.3817,110.70695 28.9931,65.55854 61.6913,110.70694 80.1784,110.70694 26.8637,0 25.3897,-14.74057 -10.5665,-105.67481 -22.9817,-58.12115 -43.325,-118.10778 -45.2073,-133.30362 -3.6771,-29.6855 360.3548,-184.99161 446.8094,-190.62134 42.0612,-2.73893 53.8354,12.37728 87.6858,112.57534 36.4183,107.79934 60.6203,137.22951 82.7639,100.64268 5.0253,-8.30302 -7.635,-69.08049 -28.1341,-135.06107 -20.4989,-65.98055 -35.2098,-122.02568 -32.6907,-124.54475 2.5191,-2.51904 116.0428,-33.99844 252.2747,-69.95418 272.766,-71.99114 270.5056,-72.45899 292.7969,60.60045 14.7102,87.80742 40.927,132.53296 67.9111,115.85585 12.9839,-8.02452 11.1655,-54.42179 -5.2082,-132.88483 -29.4392,-141.07322 -50.549,-125.77452 236.1175,-171.11942 286.283,-45.2842 268.4825,-51.02196 289.2716,93.2425 10.9824,76.21028 28.8509,127.85144 46.214,133.56219 23.2398,7.64347 26.1956,-15.89266 16.5086,-131.44131 l -11.8002,-140.75195 164.6482,-12.81812 c 90.5567,-7.04997 207.6732,-12.87242 260.259,-12.93877 l 95.6105,-0.1206 v 251.6067 251.60669 h 50.3213 50.3214 V 404.84562 153.23892 l 95.6105,0.1206 c 52.5858,0.066 170.7508,5.96966 262.5888,13.11845 l 166.9783,12.9978 -13.5829,137.84557 c -11.3616,115.30191 -8.6313,137.84564 16.6946,137.84564 32.504,0 55.4382,-80.14697 55.4382,-193.73715 0,-55.21143 7.7785,-67.93381 41.5348,-67.93381 65.7249,0 453.7693,63.15521 476.5703,77.56305 14.0249,8.86212 13.8619,49.9451 -0.511,128.74524 -11.6097,63.65144 -15.6684,121.16996 -9.0194,127.81892 26.3338,26.33378 53.3918,-17.95441 75.2258,-123.12857 12.6007,-60.69578 32.9267,-110.35596 45.1694,-110.35596 49.3526,0 498.2284,126.99047 498.2284,140.95269 0,8.25781 -13.5868,53.5232 -30.1928,100.58973 -16.6061,47.06654 -30.1928,103.30722 -30.1928,124.97929 0,74.13867 47.7753,23.55866 85.9655,-91.01238 20.9883,-62.96458 47.0471,-114.48105 57.9084,-114.48105 31.4032,0 446.5252,159.64841 466.1493,179.27255 10.2299,10.22992 -0.101,58.0604 -24.408,113.01188 -79.5611,179.86105 -33.0316,214.93633 52.8454,39.83641 29.8627,-60.88882 61.6477,-110.70695 70.6335,-110.70695 22.5107,0 358.9087,171.14169 405.9356,206.51875 36.5749,27.51434 33.4528,37.00294 -75.4821,229.39758 -62.4993,110.3828 -113.635,210.4724 -113.635,222.4214 0,18.2515 43.3957,46.161 71.7745,46.161 4.4531,0 63.483,-94.9471 131.1779,-210.9936 141.3951,-242.388 101.6712,-236.63619 375.743,-54.4056 91.3332,60.7276 166.0604,118.7444 166.0604,128.9263 0,10.1819 -27.1735,58.008 -60.3856,106.2801 -33.2121,48.2721 -60.3856,97.4578 -60.3856,109.3014 0,47.4469 53.8919,15.1102 116.377,-69.8294 36.3306,-49.3863 76.1943,-89.7934 88.586,-89.7934 23.262,0 398.8931,297.7416 398.8931,316.1799 0,5.6948 -36.2314,53.6285 -80.5142,106.5194 -44.2828,52.8909 -80.5141,101.7016 -80.5141,108.4682 0,35.0507 61.1165,3.1876 130.8355,-68.2111 43.2409,-44.2828 88.2928,-80.5142 100.1153,-80.5142 11.8223,0 102.2644,81.1451 200.9821,180.3224 l 179.487,180.3223 -94.361,83.0593 c -85.748,75.4788 -121.272,140.0235 -77.065,140.0235 9.512,0 58.455,-36.2313 108.763,-80.5141 50.308,-44.2828 96.233,-80.5141 102.055,-80.5141 24.786,0 336.952,408.9196 321.884,421.6489 -9.125,7.7086 -55.087,43.562 -102.137,79.6742 -47.051,36.1122 -85.546,73.9554 -85.546,84.0958 0,34.9804 53.454,18.2556 132.282,-41.3885 43.487,-32.9041 89.387,-60.0777 102.001,-60.3856 27.823,-0.68 292.639,400.0617 278.976,422.1694 -5.315,8.5989 -100.328,66.9693 -211.14,129.7117 -110.812,62.7425 -201.477,120.8916 -201.477,129.2202 0,8.3288 11.323,29.5272 25.161,47.1076 22.349,28.3917 48.633,18.8198 235.165,-85.6407 115.502,-64.6826 217.682,-112.8599 227.066,-107.0604 9.383,5.7994 66.051,108.2279 125.928,227.6185 l 108.867,217.0742 -119.551,51.5834 c -65.753,28.3709 -119.551,61.3193 -119.551,73.2187 0,32.222 45.918,26.4064 152.614,-19.3288 53.711,-23.0234 103.185,-33.3445 112.964,-23.5663 20.564,20.5643 177.25,426.5947 177.25,459.3203 0,12.3835 -54.347,42.3313 -120.771,66.5508 -112.261,40.9324 -142.662,66.5049 -105.675,88.8908 8.303,5.0253 69.14,-7.6533 135.193,-28.1747 79.239,-24.6184 124.469,-30.2353 132.952,-16.5106 25.152,40.697 127.799,478.9925 115.142,491.6493 -7.085,7.0848 -60.385,23.4302 -118.444,36.3231 -58.06,12.8932 -109.785,36.1066 -114.944,51.5859 -7.636,22.9066 11.876,25.6457 104.847,14.7188 62.826,-7.384 124.96,-15.5677 138.075,-18.186 23.732,-4.738 91.284,326.4144 94.015,460.8829 1.278,62.9494 1.024,63.1003 -129.555,77.0842 -99.286,10.6327 -130.835,21.6024 -130.835,45.4923 0,26.7428 20.778,29.5501 138.045,18.6513 l 138.046,-12.8299 12.918,123.5991 c 7.106,67.9795 12.919,185.6752 12.919,261.5461 V 5910 H 11511.606 11260 v 50.3214 50.3213 h 251.606 251.607 v 137.9471 c 0,75.8709 -5.813,193.5667 -12.919,261.5462 l -12.918,123.599 -140.771,-13.0831 c -115.931,-10.7746 -139.148,-8.0889 -131.578,15.2212 5.609,17.2683 57.685,35.5681 133.561,46.9337 121.802,18.2449 124.342,19.9061 123.117,80.5141 -2.581,127.6484 -72.161,464.4338 -94.974,459.6949 -12.604,-2.6183 -74.32,-10.802 -137.146,-18.1859 -92.971,-10.927 -112.483,-8.1879 -104.847,14.7188 5.159,15.4792 56.884,38.6927 114.944,51.5858 58.059,12.8929 111.362,29.2413 118.45,36.3296 12.347,12.347 -92.491,454.982 -117.251,495.045 -7.393,11.9626 -50.028,7.8451 -111.335,-10.7521 -199.542,-60.5303 -239.94,-18.0528 -49.032,51.5555 66.424,24.2194 120.771,52.4632 120.771,62.7638 0,29.5597 -159.676,445.533 -178.092,463.949 -9.106,9.106 -59.561,-1.878 -112.122,-24.4081 -106.879,-45.8135 -152.614,-51.5489 -152.614,-19.1388 0,12.0041 53.536,45.4869 118.969,74.4066 l 118.97,52.5811 -101.125,202.3609 c -55.619,111.2985 -110.237,213.6497 -121.373,227.4472 -15.56,19.2795 -71.001,-1.6868 -239.512,-90.5784 -184.938,-97.5572 -222.328,-110.938 -238.831,-85.472 -10.762,16.606 -19.705,36.4739 -19.874,44.1509 -0.16,7.6768 90.356,65.2927 201.168,128.0352 110.812,62.7425 205.825,121.1128 211.14,129.7117 13.663,22.1078 -251.153,422.8488 -278.976,422.1695 -12.614,-0.308 -58.514,-27.4815 -102.001,-60.3856 -78.828,-59.6441 -132.282,-76.3689 -132.282,-41.3885 0,10.1403 38.495,47.9836 85.546,84.0958 47.05,36.1122 93.012,71.9655 102.137,79.6742 15.068,12.7292 -297.098,421.6489 -321.884,421.6489 -5.822,0 -51.747,-36.2314 -102.055,-80.5142 -50.308,-44.2827 -99.251,-80.5141 -108.763,-80.5141 -44.03,0 -8.852,64.3958 75.958,139.0483 l 93.252,82.0842 -177.409,181.2979 c -97.5751,99.713 -187.5184,181.297 -199.8743,181.297 -12.3559,0 -57.8442,-36.231 -101.0851,-80.514 -69.719,-71.399 -130.8355,-103.262 -130.8355,-68.211 0,6.766 36.2313,55.577 80.5141,108.468 44.2828,52.891 80.5142,100.825 80.5142,106.519 0,18.439 -375.6311,316.18 -398.8931,316.18 -12.3917,0 -52.2554,-40.407 -88.586,-89.793 -63.1177,-85.8 -116.377,-117.197 -116.377,-68.607 0,12.516 31.5791,66.713 70.1757,120.436 l 70.1759,97.68 -175.8507,117.957 c -285.1712,191.287 -244.0673,196.438 -387.2487,-48.525 -89.9614,-153.912 -132.5701,-209.423 -154.3353,-201.071 -16.536,6.346 -33.8536,11.538 -38.4835,11.538 -25.1512,0 2.8936,67.104 102.7906,245.95 61.1645,109.504 105.7529,207.926 99.0851,218.715 -12.8779,20.836 -399.516,219.705 -427.1487,219.705 -8.9656,0 -40.7343,-49.818 -70.597,-110.707 -85.877,-175.1 -132.4065,-140.025 -52.8454,39.836 24.3076,54.952 34.6379,102.782 24.408,113.012 -19.6241,19.624 -434.7461,179.273 -466.1493,179.273 -10.8613,0 -36.9201,-51.517 -57.9084,-114.481 -37.9523,-113.858 -85.9655,-165.279 -85.9655,-92.068 0,21.092 14.6054,81.214 32.4566,133.604 17.8512,52.39 28.5228,99.189 23.7147,103.997 -11.1301,11.13 -460.8002,129.676 -492.5399,129.848 -13.0535,0.1 -34.0429,-49.532 -46.6434,-110.228 -21.834,-105.174 -48.892,-149.462 -75.2258,-123.129 -6.649,6.649 -2.5903,64.168 9.0194,127.819 14.373,78.8 14.536,119.884 0.511,128.746 -22.8012,14.407 -410.8456,77.563 -476.5705,77.563 -33.7563,0 -41.5348,-12.723 -41.5348,-67.934 0,-113.59 -22.9342,-193.737 -55.4382,-193.737 -25.3263,0 -28.056,22.545 -16.6924,137.868 l 13.5852,137.868 -154.9211,13.096 c -85.2065,7.203 -203.3725,13.096 -262.5911,13.096 h -107.6699 v -251.607 -251.607 h -50.3214 -50.3213 v 251.607 251.607 l -155.9961,-3.724 c -85.7979,-2.048 -202.9849,-7.03 -260.4154,-11.072 z m 194.9976,-849.375 c 0,-10.325 -16.916,-24.141 -37.591,-30.703 -48.9685,-15.542 -63.0517,-119.472 -63.0517,-465.301 0,-277.639 17.5861,-370.879 69.9517,-370.879 16.88,0 30.691,-13.587 30.691,-30.193 0,-24.1329 -30.0607,-30.1928 -149.776,-30.1928 -142.9835,0 -222.3287,30.9378 -136.7444,53.3188 46.9138,12.268 65.1065,138.023 65.1065,450.038 0,274.196 -16.7264,378.506 -63.0516,393.209 -84.5133,26.824 -27.9988,49.475 123.4372,49.475 88.5656,0 161.0283,-8.447 161.0283,-18.772 z m 310.7806,0.6 c 6.1754,-9.992 -16.6187,-27.875 -50.6541,-39.74 -71.4927,-24.922 -77.274,14.962 57.9815,-400.016 51.4185,-157.758 99.3001,-286.832 106.4036,-286.832 12.2076,0 184.4936,512.663 210.7502,627.119 9.7535,42.517 3.6761,56.181 -29.7,66.774 -88.6211,28.128 -35.3993,50.863 119.0655,50.863 165.1425,0 192.4694,-14.471 119.1986,-63.12 -29.3627,-19.497 -85.6892,-153.709 -188.9893,-450.315 -196.8154,-565.1186 -186.6746,-564.858 -385.2932,-9.907 -110.3522,308.331 -160.5405,423.002 -198.5488,453.648 -27.9763,22.558 -50.866,47.467 -50.866,55.354 0,21.135 277.4823,17.481 290.652,-3.828 z m -1972.3767,-429.692 c -7.4008,-61.551 17.1904,-196.847 87.6715,-482.3507 94.0664,-381.0433 99.194,-438.5294 39.1153,-438.5294 -9.4145,0 -141.2061,115.8049 -292.8701,257.3442 -308.3082,287.7269 -379.4533,346.5119 -419.3668,346.5119 -55.0429,0 -23.6414,-76.669 160.7608,-392.5064 163.582,-280.1778 195.6322,-323.4686 246.4715,-332.9145 l 58.4385,-10.858 -80.5141,-51.175 c -157.8745,-100.3449 -369.6899,-218.9729 -390.9861,-218.9729 -27.5955,0 -27.2635,11.6844 1.6465,57.9779 19.7314,31.5949 -3.7449,84.6855 -153.4163,346.9442 -195.154,341.9545 -223.7844,382.0541 -262.2416,367.2969 -14.446,-5.5436 -31.9506,-0.88 -38.8992,10.3628 -17.5475,28.3937 550.1692,364.745 615.6423,364.745 19.4104,0 19.5885,-5.368 0.801,-24.155 -13.2848,-13.284 -24.1542,-40.694 -24.1542,-60.91 0,-40.132 448.8752,-488.5395 459.2281,-458.7493 7.7851,22.401 -133.6007,559.9173 -160.4973,610.1733 -13.4116,25.06 -32.1414,32.169 -60.7958,23.074 -78.2588,-24.838 -27.0542,38.253 85.6185,105.495 60.0656,35.847 115.8301,65.528 123.9214,65.959 8.0912,0.43 10.0825,-37.712 4.4252,-84.763 z m 4148.3619,-69.705 c 71.469,-41.105 129.9438,-81.865 129.9438,-90.578 0,-8.713 -30.9764,-15.841 -68.8366,-15.841 -68.5463,0 -68.9652,-0.57 -99.3921,-135.868 -53.4776,-237.7924 -100.4417,-528.0839 -87.5243,-541.0014 11.8419,-11.8418 402.7155,320.8044 486.3377,413.8894 32.5669,36.252 35.1736,50.527 15.0964,82.676 -30.2758,48.479 -30.44,59.532 -0.885,59.532 32.7606,0 278.5457,-145.779 278.5457,-165.21 0,-8.771 -25.7774,-15.9463 -57.2834,-15.9463 -59.038,0 -121.8825,-47.6772 -550.9794,-418.0034 -156.7089,-135.2453 -204.1812,-166.1192 -238.6211,-155.1884 -33.7155,10.7009 -40.7577,25.1532 -32.6332,66.9726 5.698,29.3299 39.2985,231.6487 74.6678,449.597 60.6628,373.8085 62.4771,399.9395 32.008,461.0165 -50.7863,101.803 -50.5859,101.81 119.5556,3.953 z M 2341.8077,8567.4888 c 166.7484,-158.2304 303.1788,-300.3541 303.1788,-315.831 0,-15.4768 -11.9199,-32.7137 -26.4886,-38.3042 -14.5686,-5.5907 -188.932,34.1583 -387.4743,88.3311 -423.4211,115.5311 -486.6511,128.9035 -500.8531,105.924 -10.5597,-17.0857 218.8788,-160.202 519.8535,-324.2673 132.5214,-72.2395 164.7623,-82.5741 196.2532,-62.9077 31.1857,19.4758 37.681,17.726 37.681,-10.1512 0,-40.5329 -249.2953,-483.545 -303.7392,-539.7618 -38.1595,-39.4022 -38.4459,-39.3036 -38.4459,13.2458 0,45.944 -27.2778,68.7693 -206.3175,172.6418 -437.4223,253.7772 -472.8183,270.663 -517.374,246.8175 -30.6509,-16.4037 -41.1928,-15.9877 -41.1928,1.6264 0,37.1794 382.2291,702.3716 403.593,702.3716 10.5084,0 19.1062,-22.8689 19.1062,-50.8195 0,-36.7507 15.118,-56.5675 54.6093,-71.582 117.684,-44.7435 533.3601,-161.8656 542.398,-152.8279 14.2192,14.2194 -437.8722,416.1291 -468.0862,416.1291 -14.2464,0 -31.5919,-9.2056 -38.5456,-20.4568 -6.9537,-11.2513 -21.0418,-15.2663 -31.3069,-8.922 -19.9505,12.3301 19.4947,101.0237 88.6022,199.2246 l 41.6181,59.1389 24.8759,-60.9641 c 13.6818,-33.5302 161.3065,-190.4251 328.0549,-348.6553 z m 7906.1433,-122.8486 c 135.694,-237.1645 246.817,-442.6072 246.94,-456.5394 0.18,-19.4186 -8.288,-20.0152 -36.244,-2.5563 -43.186,26.9698 -54.276,21.869 -451.649,-207.7327 -235.5406,-136.0953 -276.7671,-167.186 -276.7671,-208.7225 0,-26.8436 -7.0802,-48.8064 -15.7337,-48.8064 -18.9703,0 -506.6742,827.4148 -521.8022,885.2646 -12.088,46.224 -0.711,50.2968 50.7438,18.1634 28.5392,-17.823 56.8806,-11.9054 136.6999,28.5421 168.4072,85.3383 559.6067,316.874 573.5763,339.4774 7.2183,11.6794 8.3318,39.5608 2.4746,61.9588 -7.4848,28.6216 -2.3741,37.9653 17.1972,31.4414 15.3159,-5.1052 138.8692,-203.326 274.5642,-440.4904 z M 1469.1707,6453.4705 h 406.5672 l 12.8365,51.1446 c 23.6999,94.4276 51.9133,28.3444 51.9133,-121.5945 0,-155.5026 -26.5967,-209.6425 -59.9251,-121.9823 l -19.5926,51.5324 h -400.8868 -400.8868 l -12.8365,-51.1446 c -23.5687,-93.905 -51.91332,-28.6976 -51.91332,119.4277 0,158.9335 19.18472,207.6892 49.17482,124.972 l 18.9821,-52.3553 z m 8562.9883,-20.1285 c 0,-38.9435 13.419,-40.2571 411.278,-40.2571 393.601,0 411.828,1.731 424.056,40.2571 27.618,87.0168 50.322,32.5289 50.322,-120.7713 0,-151.436 -22.652,-207.9505 -49.476,-123.4372 -19.21,60.5269 -282.051,80.0927 -670.12,49.8833 -143.557,-11.1751 -166.06,-17.9782 -166.06,-50.2007 0,-45.5704 -31.407,-49.1139 -48.1678,-5.4345 -6.7199,17.5114 -12.2179,89.9741 -12.2179,161.0283 0,101.4158 6.4909,129.1891 30.1927,129.1891 16.774,0 30.193,-17.892 30.193,-40.257 z M 1940.4877,6052.0878 c 0,-147.703 -27.2305,-199.0994 -59.9251,-113.1061 -10.7759,28.3428 -27.4703,51.5325 -37.0987,51.5325 -17.064,0 -258.7903,-149.6414 -292.0496,-180.7941 -16.6542,-15.5994 262.7851,-201.6481 302.869,-201.6481 11.618,0 26.0993,19.0271 32.1807,42.2824 6.0884,23.2823 20.7108,36.3159 32.5404,29.0048 32.1346,-19.8602 28.4329,-332.9582 -3.9364,-332.9582 -13.9809,0 -34.361,20.3802 -45.2892,45.2892 -21.2325,48.3961 -331.6593,268.5858 -407.5456,289.0774 -79.198,21.386 -427.5296,-236.1796 -427.5296,-316.1263 0,-11.3388 -9.0578,-15.0181 -20.1285,-8.176 -25.88762,15.9994 -26.41519,285.6026 -0.59,301.5633 10.7462,6.6414 25.3149,-10.9396 32.3749,-39.0691 7.0602,-28.1296 23.9586,-51.1446 37.5522,-51.1446 13.5936,0 86.086,39.4864 161.0942,87.7474 l 136.3786,87.7473 -149.8694,93.4095 c -82.4281,51.3752 -154.846,93.4095 -160.9287,93.4095 -6.0826,0 -15.7966,-18.1157 -21.5867,-40.2571 -5.7901,-22.1414 -20.4333,-40.2571 -32.5405,-40.2571 -14.0971,0 -22.01292,57.9052 -22.01292,161.0283 0,161.2449 18.91792,198.2542 61.07532,119.4824 23.6823,-44.2508 369.4794,-280.5107 410.564,-280.5107 27.1041,0 297.7555,181.2345 368.727,246.9083 24.9091,23.0498 45.2892,53.9165 45.2892,68.5926 0,14.6763 13.5868,26.6842 30.1928,26.6842 23.9381,0 30.1928,-28.9426 30.1928,-139.7117 z m 8091.6713,39.9811 c 0,-55.6212 70.458,-64.1356 473.021,-57.1614 332.858,5.7664 342.726,7.1625 362.054,51.2172 35.813,81.6293 50.581,47.8375 50.581,-115.7391 0,-153.3001 -22.704,-207.788 -50.322,-120.7712 -12.215,38.4856 -30.455,40.2571 -414.489,40.2571 h -401.713 l -19.132,-50.3213 c -12.09,-31.8005 -12.09,-68.8422 0,-100.6427 l 19.132,-50.3214 h 393.436 393.436 l 22.928,50.3214 c 40.51,88.9079 56.724,54.3863 56.724,-120.7712 0,-166.1814 -22.851,-223.0562 -48.523,-120.7712 l -12.63,50.3213 h -402.685 -402.686 l -21.847,-55.3535 c -20.331,-51.5121 -22.954,-52.5598 -37.7986,-15.0964 -17.5486,44.2882 -24.4497,610.358 -7.77,637.3461 19.1046,30.9124 48.2836,17.3068 48.2836,-22.5137 z M 2318.2273,4231.154 c 35.7986,-59.8512 65.0882,-124.6599 65.0882,-144.0195 0,-33.4838 -1.9001,-33.4796 -38.9888,0.08 -21.4437,19.4065 -49.6738,28.6806 -62.7334,20.6094 -28.7175,-17.7485 -165.4567,-312.5267 -151.4634,-326.5202 5.4384,-5.4382 91.8033,-14.5582 191.9224,-20.2669 l 182.0344,-10.379 v 54.3011 c 0,73.8901 26.4439,52.0752 110.2867,-90.981 93.5286,-159.5822 92.6816,-184.7733 -4.6119,-137.1612 -52.6403,25.7605 -145.8626,41.0469 -308.0601,50.5149 l -232.5783,13.5765 -62.1809,-148.6506 c -80.0464,-191.3602 -105.9855,-287.979 -91.8379,-342.0796 20.3982,-78.0029 -40.5237,-31.3553 -110.0897,84.2955 -82.5253,137.1948 -86.5792,177.6916 -12.9588,129.4536 43.738,-28.6582 56.1556,-29.9253 72.0006,-7.3471 29.3091,41.7639 140.0169,282.4488 132.9693,289.0828 -3.4192,3.2183 -85.4727,12.3708 -182.3413,20.3389 l -176.1247,14.4873 -0.67,-57.7341 -0.67,-57.7343 -41.701,50.1293 c -51.7823,62.2481 -144.2461,242.3144 -131.152,255.4086 5.3191,5.319 31.5206,-4.6452 58.2254,-22.1428 51.2777,-33.5985 496.9553,-81.0258 521.7949,-55.5276 38.4138,39.4373 177.8995,411.1211 177.8995,474.049 0,40.1703 6.9418,73.0368 15.4259,73.0368 8.4842,0 44.7156,-48.9691 80.5142,-108.8203 z m 7322.3592,-27.8273 c -11.735,-53.4288 -2.3565,-62.0337 194.6538,-178.6009 113.8405,-67.3573 271.7487,-157.5416 350.9077,-200.4098 142.32,-77.0731 144.395,-77.5156 186.189,-39.693 66.643,60.3117 53.164,-0.803 -31.887,-144.5733 -75.622,-127.8325 -120.887,-163.2659 -99.449,-77.8491 7.907,31.5038 0.16,57.722 -22.979,77.8659 -40.261,35.0353 -391.1393,242.7469 -554.8891,328.4809 -105.7493,55.3668 -113.0526,56.5202 -149.4309,23.5983 -85.5849,-77.4532 -65.7714,-9.1796 52.7402,181.7321 61.0597,98.3619 91.9772,110.642 74.1443,29.4489 z m -196.4253,-341.261 c -5.3311,-50.7978 13.5068,-66.8521 235.7484,-200.914 132.8483,-80.1375 288.4491,-170.5056 345.7794,-200.8182 102.323,-54.1012 105.003,-54.4205 145.932,-17.3802 61.972,56.084 52.772,3.6767 -24.289,-138.3617 -73.422,-135.3308 -121.915,-170.8144 -102.796,-75.2181 11.601,58.0022 5.478,63.9222 -176.3042,170.4615 -103.5773,60.7048 -263.3477,149.8801 -355.0455,198.1672 -155.3274,81.7938 -168.5493,85.3871 -193.44,52.5697 -30.3329,-39.9925 -52.4717,-45.6187 -52.4717,-13.3347 0,35.6853 142.6848,280.0378 163.5226,280.0378 10.5369,0 16.5507,-24.8442 13.364,-55.2093 z M 3561.1398,2707.6414 c 120.6748,-68.1047 141.2914,-103.4781 55.0485,-94.4509 l -55.3535,5.794 -5.9373,-159.2491 c -8.4556,-226.7918 -8.8602,-226.4072 151.4212,-144.0044 196.317,100.9291 194.7457,99.5278 167.8784,149.7297 -17.5533,32.7987 -17.167,42.8169 1.6505,42.8169 25.485,0 369.2516,-188.156 510.2568,-279.2823 l 80.5141,-52.033 -70.0312,-10.4671 c -77.1174,-11.5262 -104.3294,-49.403 -335.6109,-467.1421 -93.7448,-169.3215 -109.1828,-210.5303 -90.2356,-240.8694 12.5717,-20.1304 22.8575,-45.9341 22.8575,-57.3415 0,-24.6027 -170.1124,58.4738 -241.7344,118.0539 l -50.1293,41.701 63.4496,0.67 c 59.833,0.632 71.9989,15.2984 213.4311,257.3085 260.8453,446.342 248.0628,416.7777 203.9427,471.6965 -32.2135,40.0981 -50.2481,45.499 -118.5098,35.4915 -74.515,-10.9242 -356.103,-141.7695 -438.1672,-203.6029 -32.3655,-24.3866 -33.7411,-44.7159 -15.1544,-223.9602 11.2432,-108.4265 34.723,-224.755 52.1772,-258.5077 17.4543,-33.7527 27.3799,-65.7236 22.0571,-71.0465 -20.7187,-20.7187 -254.9615,121.1773 -254.9615,154.4468 0,9.6333 24.909,15.8099 55.3534,13.7257 l 55.3535,-3.7895 -5.9903,160.309 c -3.2944,88.1699 -9.1872,163.5061 -13.0948,167.4137 -10.6429,10.643 -195.4887,-86.1676 -252.1894,-132.081 -41.2021,-33.3634 -45.2143,-45.199 -23.9912,-70.7714 52.7024,-63.5024 -14.1489,-49.4147 -148.9282,31.3839 l -139.5336,83.6488 70.4498,17.427 c 38.7475,9.5848 159.8774,59.7718 269.1775,111.5267 l 198.7275,94.0997 -13.3396,208.881 c -7.3367,114.8844 -26.5659,240.536 -42.7313,279.2255 -16.1656,38.6894 -29.3919,73.7672 -29.3919,77.9505 0,20.3524 50.8884,1.9505 151.269,-54.7009 z m 4550.0552,-197.915 c -17.3272,-19.1463 -31.504,-46.5984 -31.504,-61.0043 0,-24.95 228.2721,-440.1792 334.4833,-608.4287 44.8227,-71.0035 56.4998,-78.0944 109.453,-66.4639 102.6662,22.5493 65.781,-23.7546 -85.9656,-107.917 -147.5238,-81.8203 -207.6288,-90.5749 -144.7386,-21.0819 42.7139,47.1984 42.7644,47.0745 -177.5953,435.7156 -161.5072,284.8451 -163.1299,286.8316 -234.2839,286.8316 -62.2209,0 -67.7714,3.7441 -42.1765,28.4493 16.2107,15.6469 83.7659,60.1052 150.1228,98.7963 122.4323,71.3868 179.5268,78.4431 122.2048,15.103 z M 5614.7828,1923.1952 c 7.3111,-11.8296 -5.7226,-26.4519 -29.0048,-32.5404 -23.2553,-6.0814 -42.2824,-24.7684 -42.2824,-41.5267 0,-46.3623 145.8252,-306.352 165.1355,-294.4176 19.2982,11.927 124.8136,217.2776 144.7962,281.798 10.2563,33.1157 2.8834,46.0398 -32.6,57.1456 l -45.8536,14.3515 50.3214,16.3301 c 63.6587,20.6582 657.286,21.504 724.6272,1.0324 l 50.3214,-15.2976 -55.3535,-22.4549 -55.3535,-22.4548 v -392.2965 c 0,-371.6957 2.1141,-393.4278 40.2571,-413.8413 92.0874,-49.2837 31.0273,-60.38559 -332.1208,-60.38559 -363.1265,0 -424.2067,11.10269 -332.142,60.37429 36.9878,19.7952 37.9982,26.7588 12.5175,86.2545 -15.2453,35.5965 -50.2692,103.818 -77.8308,151.6034 l -50.112,86.8825 -78.1444,-153.3031 c -71.6566,-140.5753 -75.2199,-154.9741 -42.9195,-173.429 70.6226,-40.3504 31.7665,-58.38259 -125.8033,-58.38259 -164.5963,0 -198.4466,16.74629 -112.7637,55.78599 29.4652,13.4252 91.6795,98.3774 159.725,218.1003 110.0358,193.6027 111.0564,196.9007 79.8477,258.0075 -74.2186,145.3207 -212.2615,338.6935 -248.5587,348.1854 -21.6033,5.6494 -39.2786,22.8019 -39.2786,38.1168 0,34.2386 251.7128,40.1136 272.5726,6.3618 z"
       id="path872"
       inkscape:connector-curvature="0"
       inkscape:export-xdpi="96"
       inkscape:export-ydpi="96" />
    <path
       style="fill:#6fb4e9;fill-opacity:1;stroke:none;stroke-width:2.01285362;stroke-opacity:1"
       d="m 598.97645,180.43456 c -9.00185,-13.71009 -19.7761,-34.09923 -19.7761,-37.42421 0,-3.78283 16.69095,-31.9179 21.11158,-35.5867 1.64527,-1.36545 4.38083,-1.94946 6.07902,-1.29781 2.65648,1.01939 3.01139,6.71926 2.5417,40.81927 -0.36494,26.49516 -1.27723,39.8777 -2.75191,40.36824 -1.21329,0.40358 -4.45522,-2.69187 -7.20429,-6.87879 z"
       id="path874"
       inkscape:connector-curvature="0"
       transform="scale(10)"
       inkscape:export-xdpi="96"
       inkscape:export-ydpi="96" />
    <path
       style="fill:#6fb4e9;fill-opacity:1;stroke:none;stroke-width:2.01285362;stroke-opacity:1"
       d="m 624.82503,186.57648 c -0.73804,-0.73804 -1.3419,-19.30662 -1.3419,-41.26349 v -39.9216 h 5.03213 5.03214 v 41.2635 c 0,38.67118 -0.23183,41.2635 -3.69023,41.2635 -2.02963,0 -4.29409,-0.60386 -5.03214,-1.34191 z"
       id="path876"
       inkscape:connector-curvature="0"
       transform="scale(10)"
       inkscape:export-xdpi="96"
       inkscape:export-ydpi="96" />
    <path
       style="fill:#6fb4e9;fill-opacity:1;stroke:none;stroke-width:2.01285362;stroke-opacity:1"
       d="m 991.83533,861.72976 c -3.87475,-2.30272 -18.64145,-10.94929 -32.81489,-19.21461 -21.40895,-12.48474 -25.66681,-15.74692 -25.16067,-19.27696 0.33508,-2.337 2.22875,-4.55783 4.20815,-4.93518 3.34196,-0.6371 61.48297,31.0826 67.56108,36.85894 3.5334,3.35805 1.1371,11.14283 -3.3618,10.92132 -1.8628,-0.0917 -6.55713,-2.0508 -10.43187,-4.35351 z"
       id="path878"
       inkscape:connector-curvature="0"
       transform="scale(10)"
       inkscape:export-xdpi="96"
       inkscape:export-ydpi="96" />
    <path
       style="fill:#6fb4e9;fill-opacity:1;stroke:none;stroke-width:2.01285362;stroke-opacity:1"
       d="m 982.77749,826.85905 c -16.60605,-9.53241 -31.8132,-18.8956 -33.79369,-20.80709 -4.16999,-4.0247 -2.72594,-10.25181 2.37738,-10.25181 3.28692,0 51.92282,26.67524 63.23032,34.67983 6.0612,4.29065 6.8936,12.11789 1.3981,13.14592 -1.6606,0.31064 -16.60607,-7.23444 -33.21211,-16.76685 z"
       id="path880"
       inkscape:connector-curvature="0"
       transform="scale(10)"
       inkscape:export-xdpi="96"
       inkscape:export-ydpi="96" />
    <path
       style="fill:#6fb4e9;fill-opacity:1;stroke:none;stroke-width:2.01285362;stroke-opacity:1"
       d="m 1015.9896,816.52818 c -54.10963,-31.55345 -56.35993,-33.02895 -56.35993,-36.95461 0,-7.16624 5.63496,-6.4983 22.6092,2.68001 23.27813,12.58696 51.86643,29.6 51.86643,30.86603 0,2.91582 -4.4659,8.83805 -6.6126,8.76909 -1.3449,-0.0432 -6.5213,-2.45543 -11.5031,-5.36052 z"
       id="path882"
       inkscape:connector-curvature="0"
       transform="scale(10)"
       inkscape:export-xdpi="96"
       inkscape:export-ydpi="96" />
    <path
       style="fill:#6fb4e9;fill-opacity:1;stroke:none;stroke-width:2.01285362;stroke-opacity:1"
       d="m 319.77303,1003.3376 c -4.30428,-2.7696 -1.87736,-8.57104 17.35111,-41.47703 15.24482,-26.08868 18.32332,-30.1928 22.64761,-30.1928 2.89259,0 5.25495,1.30013 5.59788,3.08079 0.78788,4.09115 -36.57579,69.24014 -40.07848,69.88264 -1.50129,0.2754 -3.98445,-0.3068 -5.51812,-1.2936 z"
       id="path884"
       inkscape:connector-curvature="0"
       transform="scale(10)"
       inkscape:export-xdpi="96"
       inkscape:export-ydpi="96" />
    <path
       style="fill:#6fb4e9;fill-opacity:1;stroke:none;stroke-width:2.01285362;stroke-opacity:1"
       d="m 160.52682,824.29207 c 0,-3.1063 6.78834,-7.72634 35.22493,-23.97353 31.31192,-17.89001 37.23779,-20.4316 37.23779,-15.97119 0,4.09595 -1.87132,5.39283 -35.41808,24.54571 -27.73732,15.83609 -37.04464,19.70503 -37.04464,15.39901 z"
       id="path886"
       inkscape:connector-curvature="0"
       transform="scale(10)"
       inkscape:export-xdpi="96"
       inkscape:export-ydpi="96" />
    <path
       style="fill:#6fb4e9;fill-opacity:1;stroke:none;stroke-width:2.01285362;stroke-opacity:1"
       d=""
       id="path890"
       inkscape:connector-curvature="0"
       transform="scale(10)"
       inkscape:export-xdpi="96"
       inkscape:export-ydpi="96" />
    <path
       style="fill:#6fb4e9;fill-opacity:1;stroke:none;stroke-width:2.01285362;stroke-opacity:1"
       d="m 150.94571,805.36121 c 1.45903,-4.48431 67.23684,-42.44744 70.28429,-40.56401 4.70104,2.9054 -0.56603,7.41159 -24.97503,21.36713 -32.7152,18.70451 -38.65101,21.71295 -42.84092,21.71295 -1.80784,0 -2.91859,-1.13224 -2.46834,-2.51607 z"
       id="path892"
       inkscape:connector-curvature="0"
       transform="scale(10)"
       inkscape:export-xdpi="96"
       inkscape:export-ydpi="96" />
  </g>
</svg>
