<?xml version="1.0" encoding="UTF-8" standalone="no"?>
<svg
   xmlns:dc="http://purl.org/dc/elements/1.1/"
   xmlns:cc="http://creativecommons.org/ns#"
   xmlns:rdf="http://www.w3.org/1999/02/22-rdf-syntax-ns#"
   xmlns:svg="http://www.w3.org/2000/svg"
   xmlns="http://www.w3.org/2000/svg"
   xmlns:sodipodi="http://sodipodi.sourceforge.net/DTD/sodipodi-0.dtd"
   xmlns:inkscape="http://www.inkscape.org/namespaces/inkscape"
   version="1.0"
   width="313px"
   height="570px"
   viewBox="0 0 3130 5700"
   preserveAspectRatio="xMidYMid meet"
   id="svg19"
   sodipodi:docname="hitting.svg"
   inkscape:version="0.92.2 5c3e80d, 2017-08-06">
  <metadata
     id="metadata25">
    <rdf:RDF>
      <cc:Work
         rdf:about="">
        <dc:format>image/svg+xml</dc:format>
        <dc:type
           rdf:resource="http://purl.org/dc/dcmitype/StillImage" />
      </cc:Work>
    </rdf:RDF>
  </metadata>
  <defs
     id="defs23" />
  <sodipodi:namedview
     pagecolor="#ffffff"
     bordercolor="#666666"
     borderopacity="1"
     objecttolerance="10"
     gridtolerance="10"
     guidetolerance="10"
     inkscape:pageopacity="0"
     inkscape:pageshadow="2"
     inkscape:window-width="1440"
     inkscape:window-height="805"
     id="namedview21"
     showgrid="false"
     inkscape:zoom="0.41403509"
     inkscape:cx="542.94068"
     inkscape:cy="91.779661"
     inkscape:window-x="0"
     inkscape:window-y="1"
     inkscape:window-maximized="1"
     inkscape:current-layer="layer101" />
  <g
     id="layer101"
     fill="#040404"
     stroke="none">
    <path
       d="M1010 5557 c-24 -8 -41 -24 -55 -51 -11 -21 -30 -42 -42 -47 -35 -13 -47 -46 -29 -74 9 -14 16 -33 16 -44 0 -11 10 -40 22 -63 16 -31 22 -59 21 -100 -1 -50 2 -59 28 -84 17 -16 29 -38 29 -53 0 -14 10 -42 22 -61 11 -19 40 -73 63 -120 26 -51 61 -103 89 -130 25 -25 46 -52 46 -61 0 -9 7 -19 15 -23 13 -5 14 -10 2 -38 -8 -18 -17 -62 -21 -98 -4 -36 -11 -69 -15 -75 -5 -5 -12 -28 -16 -49 -14 -83 -94 -329 -113 -350 -33 -36 -42 -62 -42 -123 0 -106 -57 -227 -127 -271 -88 -54 -277 -213 -316 -265 -63 -84 -87 -139 -87 -202 0 -31 5 -65 11 -76 8 -16 7 -25 -7 -40 -20 -23 -38 -25 -30 -4 6 17 -9 21 -19 5 -3 -5 -14 -10 -24 -10 -30 0 -97 -81 -116 -139 -33 -103 4 -228 80 -266 55 -26 143 -32 184 -11 17 9 29 21 26 26 -3 5 15 23 40 40 26 18 45 39 45 50 0 10 12 28 26 39 16 13 24 27 20 36 -3 8 0 15 7 15 7 0 20 12 30 28 43 69 41 69 96 22 69 -58 127 -65 212 -25 34 17 56 33 52 39 -3 6 -3 8 1 4 4 -3 23 0 41 8 19 8 44 14 55 14 12 0 46 18 76 41 31 22 56 39 57 37 2 -1 24 -35 50 -74 54 -79 75 -133 87 -214 5 -42 4 -60 -7 -77 -19 -29 -9 -93 15 -100 28 -7 37 -43 31 -113 -17 -176 -4 -544 27 -770 115 -828 555 -1290 1229 -1290 126 0 292 23 310 42 7 8 4 9 -10 4 -86 -31 -383 -41 -505 -17 -519 103 -836 468 -969 1116 -42 205 -55 365 -56 665 0 306 4 337 50 358 36 17 43 72 17 136 -17 41 -21 66 -17 128 2 42 7 93 11 112 6 34 7 35 27 21 33 -23 73 -18 108 13 24 22 31 36 31 65 0 40 -21 72 -52 82 -13 4 -21 24 -29 68 -10 55 -8 76 15 189 27 128 27 158 -1 158 -20 0 -28 -21 -56 -167 -24 -122 -24 -123 -56 -134 -37 -12 -45 -9 -125 53 -31 23 -64 48 -73 53 -15 9 -12 17 27 68 23 31 66 96 93 143 28 48 63 100 78 115 16 16 24 29 18 29 -23 0 -8 23 68 102 163 170 203 241 318 558 24 69 49 140 53 159 10 41 -4 131 -30 181 -9 19 -25 60 -35 90 -10 30 -21 60 -25 65 -3 6 -21 56 -40 111 l-33 102 21 27 c24 30 29 74 11 92 -7 7 -8 19 -4 30 4 10 9 26 10 36 3 29 26 45 100 69 66 22 70 25 73 55 3 27 -2 34 -28 48 -17 9 -62 19 -99 22 -60 5 -75 2 -126 -21 -45 -22 -73 -28 -136 -29 -100 -2 -121 -17 -96 -69 9 -19 14 -44 10 -56 -3 -12 -1 -22 4 -22 5 0 7 -32 5 -71 -2 -56 1 -79 17 -109 13 -26 22 -73 30 -157 6 -75 17 -138 30 -171 12 -29 21 -60 21 -69 0 -9 7 -24 16 -34 12 -14 13 -22 4 -39 -6 -11 -8 -29 -5 -39 4 -13 -3 -26 -23 -42 -16 -13 -45 -49 -64 -79 -47 -73 -106 -136 -117 -124 -4 5 -16 83 -25 174 -9 91 -22 189 -27 219 -11 52 -119 262 -159 306 -10 11 -31 47 -47 80 -35 71 -78 141 -93 150 -5 3 -10 15 -10 26 0 11 -11 46 -24 78 -20 50 -22 62 -11 87 7 16 22 38 34 48 24 21 29 77 9 93 -21 17 -159 23 -198 10z m579 -2506 c23 -18 23 -19 11 -89 -7 -40 -16 -72 -20 -72 -4 0 -10 33 -13 73 -3 39 -8 80 -12 90 -9 22 4 21 34 -2z"
       id="path2"
       style="stroke:none;fill:#f9f9f9;fill-opacity:1;opacity:0.61"
       inkscape:export-xdpi="95.404503"
       inkscape:export-ydpi="95.404503" />
    <path
       d="M1 5070 c0 -33 1 -34 10 -11 6 16 6 28 -1 35 -7 7 -10 -1 -9 -24z"
       id="path8" />
    <path
       d="M0 3061 c0 -48 4 -70 10 -66 11 7 6 123 -5 133 -3 3 -5 -27 -5 -67z"
       id="path14" />
  </g>
</svg>
