<?xml version="1.0" encoding="UTF-8" standalone="no"?>
<svg
   xmlns:dc="http://purl.org/dc/elements/1.1/"
   xmlns:cc="http://creativecommons.org/ns#"
   xmlns:rdf="http://www.w3.org/1999/02/22-rdf-syntax-ns#"
   xmlns:svg="http://www.w3.org/2000/svg"
   xmlns="http://www.w3.org/2000/svg"
   xmlns:sodipodi="http://sodipodi.sourceforge.net/DTD/sodipodi-0.dtd"
   xmlns:inkscape="http://www.inkscape.org/namespaces/inkscape"
   version="1.0"
   width="221px"
   height="667px"
   viewBox="0 0 2210 6670"
   preserveAspectRatio="xMidYMid meet"
   id="svg9"
   sodipodi:docname="moving.svg"
   inkscape:version="0.92.2 5c3e80d, 2017-08-06">
  <metadata
     id="metadata15">
    <rdf:RDF>
      <cc:Work
         rdf:about="">
        <dc:format>image/svg+xml</dc:format>
        <dc:type
           rdf:resource="http://purl.org/dc/dcmitype/StillImage" />
      </cc:Work>
    </rdf:RDF>
  </metadata>
  <defs
     id="defs13" />
  <sodipodi:namedview
     pagecolor="#ffffff"
     bordercolor="#666666"
     borderopacity="1"
     objecttolerance="10"
     gridtolerance="10"
     guidetolerance="10"
     inkscape:pageopacity="0"
     inkscape:pageshadow="2"
     inkscape:window-width="1440"
     inkscape:window-height="805"
     id="namedview11"
     showgrid="false"
     inkscape:zoom="0.35382309"
     inkscape:cx="-477.36441"
     inkscape:cy="333.5"
     inkscape:window-x="0"
     inkscape:window-y="1"
     inkscape:window-maximized="1"
     inkscape:current-layer="layer101" />
  <g
     id="layer101"
     fill="#040404"
     stroke="none">
    <path
       d="M322 6380 c-13 -5 -29 -25 -37 -44 -11 -26 -22 -35 -49 -40 -21 -4 -45 -19 -60 -37 -28 -33 -31 -49 -17 -77 26 -49 33 -124 21 -201 -12 -71 -11 -85 8 -167 12 -49 28 -135 36 -190 9 -56 23 -119 32 -140 10 -22 32 -70 49 -109 30 -65 53 -139 55 -175 0 -8 3 -58 6 -110 7 -114 7 -108 1 -240 -5 -114 -11 -140 -34 -140 -10 0 -13 -6 -8 -17 3 -10 9 -30 12 -44 5 -27 5 -27 -58 -26 -72 1 -131 -22 -161 -63 -25 -35 -59 -243 -60 -366 0 -63 6 -120 16 -154 9 -30 16 -74 16 -99 1 -62 18 -132 38 -154 9 -11 33 -28 52 -38 19 -10 55 -36 79 -58 l43 -39 -18 -30 c-14 -26 -15 -33 -5 -46 17 -20 40 -20 61 -1 13 12 24 13 42 6 13 -5 36 -7 51 -4 17 3 34 0 45 -10 9 -8 33 -20 54 -26 28 -9 40 -20 52 -52 18 -44 21 -62 6 -39 -32 51 -65 -120 -40 -210 22 -81 130 -147 224 -137 72 7 112 30 136 77 24 47 25 57 5 40 -19 -15 -20 -1 -1 25 14 22 29 149 18 160 -4 4 -8 30 -9 58 -1 29 -2 56 -2 60 -1 4 -16 14 -33 22 -49 21 -97 65 -79 72 23 9 61 54 83 96 31 61 70 233 62 274 l-7 36 51 -7 c85 -11 284 -82 313 -111 15 -14 40 -30 55 -34 28 -7 30 -11 51 -127 12 -65 27 -126 32 -135 5 -9 62 -282 126 -605 64 -324 154 -780 200 -1014 215 -1084 256 -1293 305 -1545 29 -148 54 -272 56 -274 14 -16 9 27 -20 180 -19 96 -50 262 -71 369 -20 107 -54 285 -75 395 -21 110 -41 216 -44 235 -4 19 -56 296 -117 615 -60 319 -130 688 -155 820 -25 132 -58 308 -74 390 -69 362 -79 417 -74 429 3 7 -6 73 -20 147 -22 117 -23 135 -10 142 12 7 14 22 10 67 -7 75 -22 107 -56 118 -24 9 -28 17 -38 80 -17 102 -18 100 27 99 110 -2 159 140 70 203 -30 22 -89 25 -129 6 -14 -5 -20 19 -44 156 -52 307 -58 333 -83 336 -35 5 -43 -24 -28 -103 8 -39 30 -162 50 -275 20 -113 40 -213 46 -223 13 -24 60 -257 54 -267 -3 -4 -21 -11 -40 -14 -31 -6 -48 -1 -113 35 -113 62 -163 85 -208 99 l-41 12 -9 133 c-12 184 -8 209 47 256 24 20 41 40 37 44 -4 4 6 31 22 59 47 83 99 248 121 386 5 36 18 74 28 85 28 32 42 87 32 122 -6 19 -5 35 1 41 5 5 13 25 18 43 5 19 16 54 25 79 10 25 30 114 46 198 16 84 33 162 39 172 5 10 29 31 52 47 54 36 85 87 67 109 -10 13 -5 22 32 60 63 65 70 67 148 53 52 -9 73 -9 89 0 35 19 29 61 -15 103 -52 50 -123 79 -208 85 -45 3 -84 12 -110 25 -28 16 -58 22 -106 22 -37 1 -70 -2 -74 -5 -3 -4 -7 -50 -8 -103 -1 -69 -6 -96 -14 -96 -16 0 -17 -12 -1 -28 9 -9 6 -18 -14 -39 -28 -30 -64 -104 -121 -248 -47 -120 -67 -192 -77 -278 -13 -111 -25 -148 -81 -238 -29 -46 -64 -104 -78 -129 -49 -85 -104 -150 -117 -139 -20 16 -83 176 -106 268 -15 58 -38 112 -74 173 -42 71 -54 101 -59 151 -4 34 -20 96 -35 137 -39 106 -45 159 -24 207 11 24 16 63 16 108 -1 39 1 78 4 88 3 9 30 33 59 52 97 62 106 107 28 139 -52 22 -176 31 -211 16z"
       id="path2"
       style="stroke:none;fill:#f9f9f9;fill-opacity:1" />
  </g>
</svg>
