<?xml version="1.0" encoding="UTF-8" standalone="no"?>
<svg
   xmlns:dc="http://purl.org/dc/elements/1.1/"
   xmlns:cc="http://creativecommons.org/ns#"
   xmlns:rdf="http://www.w3.org/1999/02/22-rdf-syntax-ns#"
   xmlns:svg="http://www.w3.org/2000/svg"
   xmlns="http://www.w3.org/2000/svg"
   xmlns:sodipodi="http://sodipodi.sourceforge.net/DTD/sodipodi-0.dtd"
   xmlns:inkscape="http://www.inkscape.org/namespaces/inkscape"
   version="1.0"
   width="606px"
   height="304px"
   viewBox="0 0 6060 3040"
   preserveAspectRatio="xMidYMid meet"
   id="svg5"
   sodipodi:docname="waiting2.svg"
   inkscape:version="0.92.2 5c3e80d, 2017-08-06">
  <metadata
     id="metadata11">
    <rdf:RDF>
      <cc:Work
         rdf:about="">
        <dc:format>image/svg+xml</dc:format>
        <dc:type
           rdf:resource="http://purl.org/dc/dcmitype/StillImage" />
      </cc:Work>
    </rdf:RDF>
  </metadata>
  <defs
     id="defs9" />
  <sodipodi:namedview
     pagecolor="#ffffff"
     bordercolor="#666666"
     borderopacity="1"
     objecttolerance="10"
     gridtolerance="10"
     guidetolerance="10"
     inkscape:pageopacity="0"
     inkscape:pageshadow="2"
     inkscape:window-width="1440"
     inkscape:window-height="805"
     id="namedview7"
     showgrid="false"
     inkscape:zoom="0.77631579"
     inkscape:cx="303"
     inkscape:cy="152"
     inkscape:window-x="0"
     inkscape:window-y="1"
     inkscape:window-maximized="1"
     inkscape:current-layer="layer101" />
  <g
     id="layer101"
     fill="#0e0e0e"
     stroke="none">
    <path
       d="M1625 2974 c-11 -2 -63 -11 -115 -20 -152 -24 -183 -34 -212 -61 -16 -15 -28 -32 -28 -37 0 -6 16 -41 35 -78 19 -38 32 -75 29 -83 -4 -10 0 -15 15 -15 19 0 21 -6 21 -53 0 -44 6 -61 37 -106 29 -44 38 -68 44 -125 7 -67 21 -116 45 -161 6 -11 17 -38 24 -60 7 -22 19 -47 26 -56 12 -14 4 -17 -80 -26 -52 -6 -126 -22 -165 -34 -39 -13 -72 -21 -74 -18 -4 4 -136 177 -271 352 l-67 88 98 127 c54 70 125 162 157 205 l59 78 -21 21 c-12 12 -23 20 -25 17 -2 -2 -55 -71 -117 -154 -63 -82 -131 -171 -152 -198 l-37 -47 -73 96 c-40 53 -110 143 -154 200 l-82 104 -22 -18 -23 -18 88 -115 c48 -63 119 -155 157 -206 l70 -92 -29 -40 c-15 -22 -68 -92 -118 -156 -49 -63 -101 -131 -115 -149 -14 -18 -45 -60 -70 -92 -25 -33 -49 -65 -54 -72 -4 -6 -21 -92 -37 -190 -16 -97 -50 -296 -74 -442 -25 -145 -45 -272 -45 -281 0 -15 38 -34 49 -24 5 5 31 153 102 576 l53 317 51 7 c27 4 125 10 216 14 l166 6 -28 -35 c-16 -19 -32 -51 -35 -70 -4 -19 -18 -54 -32 -78 l-24 -43 31 -77 c99 -238 154 -305 402 -483 114 -82 149 -98 294 -138 149 -40 173 -50 155 -61 -12 -8 -11 -13 6 -32 12 -13 37 -51 58 -84 25 -44 44 -64 63 -69 15 -3 39 -15 54 -26 56 -39 117 -32 209 26 42 27 81 91 75 124 -2 9 -4 20 -4 25 -1 6 -8 1 -16 -10 -13 -18 -15 -15 -17 31 -1 28 -1 74 0 103 3 40 0 52 -11 52 -10 0 -13 7 -10 19 2 10 -3 25 -11 34 -9 8 -16 24 -16 34 0 37 -13 43 -83 36 -37 -3 -67 -10 -67 -14 0 -5 -12 -9 -26 -9 -17 0 -24 4 -21 13 29 77 36 128 29 208 -4 47 -4 98 0 114 4 17 10 47 13 68 5 32 14 43 52 67 85 54 260 96 351 84 40 -5 53 -2 86 21 l38 26 142 -45 c77 -25 175 -53 216 -62 41 -9 154 -39 250 -67 96 -27 204 -57 240 -67 36 -10 263 -75 505 -145 242 -69 715 -205 1050 -302 336 -97 624 -179 640 -183 28 -7 314 -89 367 -105 15 -5 20 -4 13 3 -5 5 -50 21 -100 35 -49 14 -119 35 -155 45 -36 11 -243 72 -460 136 -217 64 -433 128 -480 142 -47 15 -328 98 -625 186 -297 87 -576 170 -620 183 -198 59 -502 148 -520 153 -11 2 -27 10 -35 17 -8 7 -55 25 -105 40 -268 80 -285 86 -285 103 0 10 -14 23 -32 31 -18 7 -47 19 -65 27 -17 8 -36 14 -42 14 -6 0 -11 14 -11 30 0 20 -11 42 -32 65 -31 31 -52 39 -101 36 -29 -2 -77 -59 -77 -92 0 -16 -4 -29 -10 -29 -5 0 -10 9 -10 21 0 12 -8 23 -20 26 -11 3 -20 8 -20 12 0 10 -59 33 -69 27 -5 -4 -13 -2 -16 4 -5 8 -14 6 -30 -4 -23 -15 -24 -14 -45 32 -44 93 -72 179 -105 322 -23 100 -39 148 -52 157 -21 16 -25 81 -6 101 6 7 27 15 45 19 43 8 95 30 103 43 11 18 -5 47 -33 59 -15 7 -60 13 -101 12 -72 -1 -74 -1 -57 18 10 10 34 22 54 26 107 18 141 49 101 91 -12 13 -36 28 -53 33 -39 12 -124 21 -151 15z m-650 -704 c19 -25 71 -91 115 -147 44 -56 80 -104 80 -106 0 -3 -21 -10 -47 -17 -33 -8 -87 -9 -168 -5 -106 6 -350 -6 -429 -21 -23 -4 -27 -2 -19 8 6 7 48 63 94 124 46 61 122 159 168 218 l83 107 44 -58 c25 -32 60 -78 79 -103z m1123 -373 c54 -16 48 -23 -17 -19 -35 3 -51 8 -51 18 0 17 13 17 68 1z m-598 -207 c0 -5 -2 -10 -4 -10 -3 0 -8 5 -11 10 -3 6 -1 10 4 10 6 0 11 -4 11 -10z m221 -41 l-10 -24 0 26 c-1 14 2 29 6 33 12 12 14 -9 4 -35z"
       id="path2"
       style="stroke:none;stroke-opacity:1;fill:#f9f9f9;fill-opacity:1"
       inkscape:export-xdpi="95.404503"
       inkscape:export-ydpi="95.404503" />
  </g>
</svg>
