<?xml version="1.0" encoding="UTF-8" standalone="no"?>
<svg
   xmlns:dc="http://purl.org/dc/elements/1.1/"
   xmlns:cc="http://creativecommons.org/ns#"
   xmlns:rdf="http://www.w3.org/1999/02/22-rdf-syntax-ns#"
   xmlns:svg="http://www.w3.org/2000/svg"
   xmlns="http://www.w3.org/2000/svg"
   xmlns:sodipodi="http://sodipodi.sourceforge.net/DTD/sodipodi-0.dtd"
   xmlns:inkscape="http://www.inkscape.org/namespaces/inkscape"
   version="1.0"
   width="106px"
   height="97px"
   viewBox="0 0 1060 970"
   preserveAspectRatio="xMidYMid meet"
   id="svg9"
   sodipodi:docname="winding_reel.svg"
   inkscape:export-filename="/Users/shuichi-fu/Downloads/winding_reel.png"
   inkscape:export-xdpi="93.199997"
   inkscape:export-ydpi="93.199997"
   inkscape:version="0.92.2 5c3e80d, 2017-08-06">
  <metadata
     id="metadata15">
    <rdf:RDF>
      <cc:Work
         rdf:about="">
        <dc:format>image/svg+xml</dc:format>
        <dc:type
           rdf:resource="http://purl.org/dc/dcmitype/StillImage" />
      </cc:Work>
    </rdf:RDF>
  </metadata>
  <defs
     id="defs13" />
  <sodipodi:namedview
     pagecolor="#ffffff"
     bordercolor="#666666"
     borderopacity="1"
     objecttolerance="10"
     gridtolerance="10"
     guidetolerance="10"
     inkscape:pageopacity="0"
     inkscape:pageshadow="2"
     inkscape:window-width="1440"
     inkscape:window-height="805"
     id="namedview11"
     showgrid="false"
     inkscape:zoom="2.4329897"
     inkscape:cx="53"
     inkscape:cy="48.5"
     inkscape:window-x="0"
     inkscape:window-y="1"
     inkscape:window-maximized="1"
     inkscape:current-layer="svg9" />
  <g
     id="layer101"
     fill="#313332"
     stroke="none"
     style="fill:#f9f9f9">
    <path
       d="M238 913 c-32 -5 -32 -2 -18 -163 7 -78 6 -127 -5 -190 -23 -147 -28 -282 -10 -307 8 -12 12 -29 9 -38 -5 -11 0 -18 15 -22 16 -4 20 -10 15 -22 -22 -54 -6 -91 41 -91 26 0 73 54 55 65 -5 3 -10 15 -10 25 0 10 -8 23 -17 28 -15 9 -14 16 18 78 l34 69 58 -3 c43 -2 76 -11 129 -38 63 -32 247 -114 254 -114 2 0 1 7 -2 15 -4 8 -10 12 -15 9 -5 -3 -21 1 -36 9 -16 8 -91 45 -168 83 -80 39 -133 70 -122 72 21 4 21 12 3 37 -13 18 -24 18 -112 0 l-30 -7 -2 64 c0 34 -6 106 -12 158 -6 52 -14 130 -17 173 -5 73 -4 79 16 84 12 3 21 12 21 19 0 14 -31 16 -92 7z m197 -523 c3 -5 2 -10 -4 -10 -5 0 -13 5 -16 10 -3 6 -2 10 4 10 5 0 13 -4 16 -10z"
       id="path2"
       style="fill:#f9f9f9" />
    <path
       d="M830 180 c20 -13 33 -13 25 0 -3 6 -14 10 -23 10 -15 0 -15 -2 -2 -10z"
       id="path4"
       style="fill:#f9f9f9" />
    <path
       d="M885 160 c11 -5 27 -9 35 -9 9 0 8 4 -5 9 -11 5 -27 9 -35 9 -9 0 -8 -4 5 -9z"
       id="path6"
       style="fill:#f9f9f9" />
  </g>
</svg>
